<svg id="Layer_1" data-name="Layer 1" xmlns="http://www.w3.org/2000/svg" viewBox="0 0 375 250"><defs><style>.cls-1,.cls-2,.cls-3,.cls-7{fill:#fff;stroke:#fff;stroke-miterlimit:10;}.cls-1{stroke-width:4px;}.cls-2{stroke-width:3px;}.cls-3{stroke-width:1.5px;}.cls-4{fill:#f39820;}.cls-5{fill:#ed1c24;}.cls-6{fill:#60cae6;}</style></defs><path class="cls-1" d="M71.1,32.14a19.21,19.21,0,0,0-.89-6.49A6.81,6.81,0,0,0,67.27,22a13,13,0,0,0-5.38-1.58c-2.22-.22-5-.34-8.26-.34H38.29c-2.92,0-5.37.09-7.37.26a17.48,17.48,0,0,0-4.94,1,6.58,6.58,0,0,0-3,2.26,9.87,9.87,0,0,0-1.54,3.89,35.36,35.36,0,0,0-.55,6q-.08,3.54-.07,8.46t.09,8.46a35.22,35.22,0,0,0,.56,6A10.16,10.16,0,0,0,23,60.31a6.53,6.53,0,0,0,3,2.25,17.45,17.45,0,0,0,4.94,1c2,.17,4.45.25,7.37.25H53.63q3.84,0,6.6-.2A24.13,24.13,0,0,0,65,62.9a8.67,8.67,0,0,0,3.14-1.5A6.57,6.57,0,0,0,70,59a11.78,11.78,0,0,0,.9-3.48,41.39,41.39,0,0,0,.24-4.77h6.56a38.25,38.25,0,0,1-.41,5.93,15.48,15.48,0,0,1-1.45,4.71A11.59,11.59,0,0,1,73,65a14.07,14.07,0,0,1-4.41,2.47,29.14,29.14,0,0,1-6.35,1.44,69.92,69.92,0,0,1-8.62.46H38.29a59.11,59.11,0,0,1-10.14-.73,21.66,21.66,0,0,1-6.78-2.23,11.27,11.27,0,0,1-4.12-3.74,16.08,16.08,0,0,1-2.12-5.3,37.21,37.21,0,0,1-.77-6.87q-.11-3.83-.1-8.47t.1-8.48a37.41,37.41,0,0,1,.77-6.87,16.17,16.17,0,0,1,2.12-5.3,11.35,11.35,0,0,1,4.12-3.74,21.93,21.93,0,0,1,6.78-2.22,59,59,0,0,1,10.14-.74H53.63a72,72,0,0,1,8.62.46,30.47,30.47,0,0,1,6.35,1.41A14.15,14.15,0,0,1,73,18.88a11.29,11.29,0,0,1,2.79,3.38,14,14,0,0,1,1.45,4.41,32.75,32.75,0,0,1,.41,5.47Z"/><path class="cls-1" d="M129.06,15.74h6.56v52.5h-6.56Z"/><path class="cls-1" d="M246.08,15.74v5.47H219.83v47h-6.56v-47H187V15.74Z"/><path class="cls-1" d="M295.29,15.74H304l24.07,25.69,24.06-25.69h8.75L331.39,46.36V68.24h-6.57V46.36Z"/><path class="cls-1" d="M39.28,168.19a55.86,55.86,0,0,1,6.4.31,23.41,23.41,0,0,1,4.49.91,9.06,9.06,0,0,1,2.92,1.51A6.66,6.66,0,0,1,54.77,173a7.55,7.55,0,0,1,.76,2.57,24.73,24.73,0,0,1,.18,3.09,16.05,16.05,0,0,1-.29,3.09,7.83,7.83,0,0,1-1.06,2.64,7.67,7.67,0,0,1-2,2.14A12,12,0,0,1,49,188.1a25.37,25.37,0,0,1-4.82,1,55.2,55.2,0,0,1-6.6.34h-6q-3.39,0-6-.26a25.56,25.56,0,0,1-4.39-.79,10.46,10.46,0,0,1-3-1.35,6.89,6.89,0,0,1-1.93-1.91,7,7,0,0,1-1-2.5,15.7,15.7,0,0,1-.28-3.11h4.53a7.7,7.7,0,0,0,.61,3.39,3.94,3.94,0,0,0,2,1.83,11.66,11.66,0,0,0,3.72.77q2.31.15,5.7.15h6a46.33,46.33,0,0,0,6.59-.38,12.64,12.64,0,0,0,4.17-1.21,4.83,4.83,0,0,0,2.2-2.18,7.46,7.46,0,0,0,.64-3.26,10.06,10.06,0,0,0-.44-3.21,3.73,3.73,0,0,0-1.72-2,9.78,9.78,0,0,0-3.63-1.08,47.41,47.41,0,0,0-6.11-.32H33.05a68.78,68.78,0,0,1-7.12-.31,29.22,29.22,0,0,1-5-.88,10.7,10.7,0,0,1-3.21-1.44,6.06,6.06,0,0,1-1.83-2,7,7,0,0,1-.82-2.47,22.53,22.53,0,0,1-.18-2.94,14.82,14.82,0,0,1,.29-3.07,6.82,6.82,0,0,1,1.1-2.56,7.45,7.45,0,0,1,2.19-2,12.89,12.89,0,0,1,3.58-1.5,31.64,31.64,0,0,1,5.25-.91,72.19,72.19,0,0,1,7.23-.31h4.53q3.4,0,5.95.25a23.67,23.67,0,0,1,4.39.78,11.17,11.17,0,0,1,3.06,1.32,6.57,6.57,0,0,1,1.93,1.89,7.06,7.06,0,0,1,1,2.49,15.49,15.49,0,0,1,.28,3.09H51.18a7.46,7.46,0,0,0-.62-3.33,3.81,3.81,0,0,0-2-1.8,11.63,11.63,0,0,0-3.73-.76c-1.54-.1-3.44-.15-5.71-.15H34.56a69.09,69.09,0,0,0-7.46.32,16,16,0,0,0-4.63,1.07,4.63,4.63,0,0,0-2.36,2,6.89,6.89,0,0,0-.66,3.19,12,12,0,0,0,.16,2.1,3.91,3.91,0,0,0,.68,1.62,4,4,0,0,0,1.42,1.17,10.16,10.16,0,0,0,2.44.78,26.5,26.5,0,0,0,3.69.43c1.46.09,3.19.13,5.21.13Z"/><path class="cls-1" d="M89.38,152.33h27.24a47.84,47.84,0,0,1,5.7.29,16.27,16.27,0,0,1,3.84.89,6.13,6.13,0,0,1,2.32,1.46,5.42,5.42,0,0,1,1.2,2.05,10.13,10.13,0,0,1,.43,2.65c0,1,.06,2.05.06,3.23s0,2.36-.08,3.4a10.09,10.09,0,0,1-.54,2.82,5.68,5.68,0,0,1-1.47,2.22,7.81,7.81,0,0,1-2.85,1.6,24,24,0,0,1-4.7,1,62.3,62.3,0,0,1-7,.33H93.91v14.35H89.38Zm4.53,18.13h19.62c2,0,3.71,0,5.09-.11A22.56,22.56,0,0,0,122,170a5.52,5.52,0,0,0,2.07-.8,3,3,0,0,0,1.08-1.37,6.31,6.31,0,0,0,.4-2c0-.8.06-1.74.06-2.85s0-1.9-.06-2.64a5.23,5.23,0,0,0-.4-1.87,2.72,2.72,0,0,0-1.08-1.2,6.21,6.21,0,0,0-2.07-.7,23.9,23.9,0,0,0-3.41-.31c-1.38-.05-3.08-.08-5.09-.08H93.91Z"/><path class="cls-1" d="M197.65,180.28H169.28l-4.73,8.31H159.3L180,152.33h6.5l20.62,36.26h-4.75Zm-2.14-3.78-12-21.18L171.43,176.5Z"/><path class="cls-1" d="M281.36,188.59h-4.53v-6.8c0-1.1,0-2-.06-2.84a6.32,6.32,0,0,0-.4-2,3.1,3.1,0,0,0-1.08-1.37,5.69,5.69,0,0,0-2.07-.8,22.56,22.56,0,0,0-3.41-.39c-1.38-.07-3.08-.1-5.09-.1H244.34v14.35h-4.53V152.33h25.66c2.77,0,5.11.1,7,.29a23.59,23.59,0,0,1,4.7.89A8,8,0,0,1,280,155a5.23,5.23,0,0,1,1.46,2.05,8.37,8.37,0,0,1,.54,2.65c.06,1,.09,2.05.09,3.23a22.19,22.19,0,0,1-.32,4,8.22,8.22,0,0,1-1.08,2.92,5.66,5.66,0,0,1-2,1.92,8.79,8.79,0,0,1-3.14,1,7.82,7.82,0,0,1,3,1,4.9,4.9,0,0,1,1.75,1.84,7.53,7.53,0,0,1,.81,2.69,28.72,28.72,0,0,1,.2,3.54Zm-37-18.13h21.13c2,0,3.71,0,5.09-.11A22.24,22.24,0,0,0,274,170a5.57,5.57,0,0,0,2.08-.8,3,3,0,0,0,1.07-1.37,6.3,6.3,0,0,0,.41-2c0-.8.05-1.74.05-2.85s0-1.9-.05-2.64a5.22,5.22,0,0,0-.41-1.87,2.64,2.64,0,0,0-1.07-1.2,6.28,6.28,0,0,0-2.08-.7,23.62,23.62,0,0,0-3.41-.31c-1.38-.05-3.07-.08-5.09-.08H244.34Z"/><path class="cls-1" d="M349.78,152.33h6.8l-25.69,17.75,26.44,18.51h-6.79L326.38,172h-6.06v16.62h-4.54V152.33h4.54v15.86h6.05Z"/><line class="cls-2" x1="5.49" y1="77.87" x2="368.1" y2="77.87"/><line class="cls-2" x1="5.49" y1="137.35" x2="368.1" y2="137.35"/><line class="cls-3" x1="5.49" y1="213.27" x2="368.1" y2="213.27"/><path class="cls-4" d="M46.1,110a2.21,2.21,0,0,0,.58-.42c.82-.63,1.62-1.27,2.43-1.91s1.38-1.11,2.08-1.65l2.19-1.73c.57-.46,1.14-.9,1.7-1.37s1.27-1,1.9-1.47c.41-.33.81-.67,1.22-1L60.11,99l1.24-1,1.25-1,1.24-1,1.36-1.06,2.18-1.73,1.89-1.48L71.4,90l2.15-1.69,1-.81a1.08,1.08,0,0,1,.18-.11s0,0,0,0c-.42.74-.91,1.44-1.33,2.18s-.92,1.49-1.37,2.23-.71,1.21-1.08,1.81-.89,1.43-1.32,2.14-.91,1.5-1.36,2.25-1.05,1.69-1.55,2.55-1,1.65-1.48,2.46c0,0,0,.06,0,.1.38,0,.76.07,1.14.12l1.51.17c.3,0,.61.08.91.1.54,0,1.07.12,1.6.19.35,0,.69.06,1,.1.52.07,1,.1,1.58.17.31,0,.62.07.94.11.54.07,1.1.1,1.64.18s1,.08,1.42.15c.66.1,1.32.12,2,.23.49.07,1,.09,1.49.15s.94.14,1.41.17.69.09,1,.1a.54.54,0,0,1,.27.07L54.73,127.8l0,0L64,112.12l-1.83-.21-2.08-.23-2-.23L56,111.21,53.9,111c-.76-.08-1.5-.19-2.25-.28-.5-.06-1-.09-1.49-.14s-1.21-.18-1.82-.23-1-.12-1.44-.15c-.27,0-.53-.06-.8-.09Z"/><path class="cls-4" d="M74.73,87.42s0,0,0,0,0,0,0,0S74.73,87.43,74.73,87.42Z"/><path class="cls-5" d="M194.51,87.33h.05l.14.11c.64.39,1.28.78,1.93,1.16a14.63,14.63,0,0,1,5.52,5.6c.35.62.63,1.28.95,1.92a13.37,13.37,0,0,0,1.28-2.6l.13.11c1,1,1.94,2,2.86,3.07a29.15,29.15,0,0,1,5.26,8.36,16.94,16.94,0,0,1,1.17,4.23c0,.34.09.69.14,1V112a1.42,1.42,0,0,0-.05.22c-.12,1-.19,1.94-.39,2.89a11,11,0,0,1-3.58,6.22,13,13,0,0,1-5,2.58,21.78,21.78,0,0,1-3.77.7l-1.33.14a1.78,1.78,0,0,1,.32-.24,7.26,7.26,0,0,0,2.58-3.09,6.83,6.83,0,0,0,.24-5.76,11.93,11.93,0,0,0-1.46-2.45,15,15,0,0,1-1.8-2.86c-.37-.89-.65-1.81-1-2.71,0-.09-.07-.17-.11-.28-1.09.7-2.16,1.36-3.19,2.08a14.09,14.09,0,0,0-3.82,3.76,7.45,7.45,0,0,0-1.38,5.63,8.75,8.75,0,0,0,3.58,5.73l.1.09a14.26,14.26,0,0,1-1.87-.22,13.82,13.82,0,0,1-8.52-5.16,11.15,11.15,0,0,1-2.42-6.33,11.92,11.92,0,0,1,1.28-6,19.56,19.56,0,0,1,4.9-6.16A25.47,25.47,0,0,0,190.85,97a16.49,16.49,0,0,0,3.35-7.83C194.27,88.54,194.41,87.94,194.51,87.33Z"/><path class="cls-6" d="M330.23,87.33h0l.77.91a87.87,87.87,0,0,1,7,9.39,49.93,49.93,0,0,1,4.72,9,22,22,0,0,1,1.46,5.57,16.54,16.54,0,0,1-.66,6.74,12,12,0,0,1-4.8,6.59,14.16,14.16,0,0,1-7.05,2.31,18.19,18.19,0,0,1-5.26-.32,12.61,12.61,0,0,1-7-3.94,13.48,13.48,0,0,1-3.22-7.78c0-.29-.07-.57-.1-.86v-2.06a1.46,1.46,0,0,0,0-.2c.1-.7.17-1.41.31-2.11a29.24,29.24,0,0,1,2.48-6.91,66.7,66.7,0,0,1,6.44-10.37C327,91.22,328.55,89.24,330.23,87.33Zm1.6,35.42a8.14,8.14,0,0,0,8.17-8.16h-2.31a5.91,5.91,0,0,1-5.86,5.86Z"/><path class="cls-7" d="M14.86,234.11V220.5h13.6v1.42H16.56v4.54H27.9v1.41H16.56v4.82h11.9v1.42Z"/><path class="cls-7" d="M31.42,220.5h1.7v13.61h-1.7Z"/><path class="cls-7" d="M42.6,234.3a14.88,14.88,0,0,1-2.89-.23,4.67,4.67,0,0,1-1.93-.81,3.19,3.19,0,0,1-1.08-1.54,7.33,7.33,0,0,1-.34-2.43,9.42,9.42,0,0,1,.34-2.77,3.6,3.6,0,0,1,1.08-1.74,4.28,4.28,0,0,1,1.93-.9,13.92,13.92,0,0,1,2.89-.26,10.67,10.67,0,0,1,2.1.18,5.64,5.64,0,0,1,1.52.51,3.3,3.3,0,0,1,1,.82,4.24,4.24,0,0,1,.62,1,4.33,4.33,0,0,1,.31,1.24,11.86,11.86,0,0,1,.09,1.5l-.14.56H38.06a6.43,6.43,0,0,0,.23,1.87,1.93,1.93,0,0,0,.76,1.07,3.35,3.35,0,0,0,1.4.43,21.49,21.49,0,0,0,2.15.09c.78,0,1.42,0,1.93-.07a4.73,4.73,0,0,0,1.22-.23,1.28,1.28,0,0,0,.64-.5,1.62,1.62,0,0,0,.18-.81h1.7a3.18,3.18,0,0,1-.29,1.4,2.16,2.16,0,0,1-.95.94,5.51,5.51,0,0,1-1.75.52A18.43,18.43,0,0,1,42.6,234.3Zm0-9.26c-.57,0-1.08,0-1.52,0a6.19,6.19,0,0,0-1.17.15,2.92,2.92,0,0,0-.86.35,2.07,2.07,0,0,0-.57.53,2.24,2.24,0,0,0-.32.86,8.3,8.3,0,0,0-.1,1.33h8.51a4.74,4.74,0,0,0-.23-1.63,2.19,2.19,0,0,0-.7-1,2.78,2.78,0,0,0-1.23-.52A10.32,10.32,0,0,0,42.6,225Z"/><path class="cls-7" d="M50.94,229a12.92,12.92,0,0,1,.11-1.86,5,5,0,0,1,.37-1.41,2.72,2.72,0,0,1,.73-1,3.36,3.36,0,0,1,1.15-.65,7.55,7.55,0,0,1,1.65-.35,20.62,20.62,0,0,1,2.23-.11,15.37,15.37,0,0,1,2.8.21,4.7,4.7,0,0,1,1.74.64,2.26,2.26,0,0,1,.88,1.09,4.35,4.35,0,0,1,.25,1.57h-1.7a5.92,5.92,0,0,0,0-.61,1.17,1.17,0,0,0-.47-.93,2,2,0,0,0-.69-.3,6.45,6.45,0,0,0-1.12-.19c-.45,0-1-.06-1.67-.06s-1.39,0-1.91.08a5.31,5.31,0,0,0-1.28.26,1.86,1.86,0,0,0-.78.48,1.72,1.72,0,0,0-.4.74,4.79,4.79,0,0,0-.15,1c0,.39,0,.85,0,1.36s0,1,0,1.34a4.69,4.69,0,0,0,.15,1,1.62,1.62,0,0,0,.4.73,2,2,0,0,0,.78.49,5.31,5.31,0,0,0,1.28.26c.52.05,1.15.08,1.91.08s1.22,0,1.67-.07a6.34,6.34,0,0,0,1.12-.2,2,2,0,0,0,.69-.31,1.41,1.41,0,0,0,.35-.43,1.53,1.53,0,0,0,.12-.54,6.22,6.22,0,0,0,0-.63h1.7a4.58,4.58,0,0,1-.25,1.61,2.24,2.24,0,0,1-.88,1.12,4.69,4.69,0,0,1-1.74.65,15.37,15.37,0,0,1-2.8.21,20.85,20.85,0,0,1-2.23-.1,7,7,0,0,1-1.65-.36,3.34,3.34,0,0,1-1.15-.64,2.9,2.9,0,0,1-.73-1,5,5,0,0,1-.37-1.39A12.73,12.73,0,0,1,50.94,229Z"/><path class="cls-7" d="M75.73,229.57a9.51,9.51,0,0,1-.21,2.18,2.88,2.88,0,0,1-.72,1.39,2.78,2.78,0,0,1-1.31.75,7.65,7.65,0,0,1-2,.22,9,9,0,0,1-2-.18,2.93,2.93,0,0,1-1.28-.6,2.45,2.45,0,0,1-.7-1.13,6.31,6.31,0,0,1-.21-1.77v-5.11h-2.1v-1.41h2.1v-2.78H69v2.78h6.41v1.41H69v5.11a5.4,5.4,0,0,0,.13,1.31,1.24,1.24,0,0,0,.41.67,1.48,1.48,0,0,0,.75.25q.47,0,1.14,0h1a3.09,3.09,0,0,0,.74-.12,1.28,1.28,0,0,0,.53-.28,1.35,1.35,0,0,0,.36-.54,3.5,3.5,0,0,0,.2-.87,11.71,11.71,0,0,0,.06-1.3Z"/><path class="cls-7" d="M87.47,227.23a5.16,5.16,0,0,0-.09-1.06,1.07,1.07,0,0,0-.44-.67,2.33,2.33,0,0,0-1-.36,12.84,12.84,0,0,0-1.85-.1,7.28,7.28,0,0,0-1.86.2,2.74,2.74,0,0,0-1.12.56,1.85,1.85,0,0,0-.56.87,4.35,4.35,0,0,0-.14,1.12v6.32h-1.7v-10.2h1.7v1.62a2.18,2.18,0,0,1,.33-.61,2.26,2.26,0,0,1,.72-.62,5,5,0,0,1,1.26-.48,8.14,8.14,0,0,1,1.94-.2,8,8,0,0,1,2.16.24,2.88,2.88,0,0,1,1.3.69,2.3,2.3,0,0,1,.63,1.13,6.54,6.54,0,0,1,.16,1.55Z"/><path class="cls-7" d="M93,222.21h-1.7V220.5H93Zm-1.7,1.7H93v10.2h-1.7Z"/><path class="cls-7" d="M96.22,229a14.55,14.55,0,0,1,.11-1.86,5,5,0,0,1,.37-1.41,2.84,2.84,0,0,1,.73-1,3.36,3.36,0,0,1,1.15-.65,7.55,7.55,0,0,1,1.65-.35,20.62,20.62,0,0,1,2.23-.11,15.29,15.29,0,0,1,2.8.21,4.63,4.63,0,0,1,1.74.64,2.28,2.28,0,0,1,.89,1.09,4.57,4.57,0,0,1,.25,1.57h-1.71c0-.22,0-.42,0-.61a1.59,1.59,0,0,0-.13-.51,1.25,1.25,0,0,0-.35-.42,2.06,2.06,0,0,0-.68-.3,6.58,6.58,0,0,0-1.13-.19c-.45,0-1-.06-1.67-.06s-1.39,0-1.91.08a5.42,5.42,0,0,0-1.28.26,1.86,1.86,0,0,0-.78.48,1.83,1.83,0,0,0-.4.74,4.79,4.79,0,0,0-.15,1c0,.39,0,.85,0,1.36s0,1,0,1.34a4.69,4.69,0,0,0,.15,1,1.72,1.72,0,0,0,.4.73,2,2,0,0,0,.78.49,5.42,5.42,0,0,0,1.28.26c.52.05,1.16.08,1.91.08s1.22,0,1.67-.07a6.47,6.47,0,0,0,1.13-.2,2.06,2.06,0,0,0,.68-.31,1.28,1.28,0,0,0,.35-.43,1.78,1.78,0,0,0,.13-.54c0-.19,0-.4,0-.63h1.71a4.82,4.82,0,0,1-.25,1.61,2.26,2.26,0,0,1-.89,1.12,4.62,4.62,0,0,1-1.74.65,15.29,15.29,0,0,1-2.8.21,20.85,20.85,0,0,1-2.23-.1,7,7,0,0,1-1.65-.36,3.34,3.34,0,0,1-1.15-.64,3,3,0,0,1-.73-1,5,5,0,0,1-.37-1.39A14.33,14.33,0,0,1,96.22,229Z"/><path class="cls-7" d="M130.2,227.31h1.71v.56c0,.91,0,1.7-.1,2.36a6.15,6.15,0,0,1-.37,1.68,2.75,2.75,0,0,1-.81,1.12,3.73,3.73,0,0,1-1.37.67,10.67,10.67,0,0,1-2.08.33c-.82.05-1.79.08-2.93.08l-2.79,0a21.55,21.55,0,0,1-2.18-.15,6.19,6.19,0,0,1-1.62-.4,2.76,2.76,0,0,1-1.1-.78,3.13,3.13,0,0,1-.62-1.28,7.93,7.93,0,0,1-.19-1.91,5,5,0,0,1,.19-1.47,4.07,4.07,0,0,1,.49-1.07,3.1,3.1,0,0,1,.67-.72,4.14,4.14,0,0,1,.7-.43,2.87,2.87,0,0,1,.64-.22,3.14,3.14,0,0,1,.43,0,4.63,4.63,0,0,1-.58-.44,2.3,2.3,0,0,1-.45-.49,2.16,2.16,0,0,1-.29-.59,2.48,2.48,0,0,1-.1-.75,3.08,3.08,0,0,1,.28-1.41,2.5,2.5,0,0,1,.75-.91,3.49,3.49,0,0,1,1.1-.52,8.85,8.85,0,0,1,1.32-.23,13,13,0,0,1,1.4-.05h1.39c.94,0,1.77,0,2.47,0a13.8,13.8,0,0,1,1.81.17,4.32,4.32,0,0,1,1.24.39,2,2,0,0,1,.77.7,3,3,0,0,1,.4,1.1,10,10,0,0,1,.11,1.57h-1.7a8.22,8.22,0,0,0-.06-1.08,1.8,1.8,0,0,0-.26-.72,1.14,1.14,0,0,0-.53-.43,3.18,3.18,0,0,0-.92-.22,12.41,12.41,0,0,0-1.38-.09h-2c-.85,0-1.57,0-2.15,0a5.18,5.18,0,0,0-1.4.18,1.35,1.35,0,0,0-.76.51,1.77,1.77,0,0,0-.23,1,1.41,1.41,0,0,0,.07.45,1.7,1.7,0,0,0,.24.43,2.12,2.12,0,0,0,.43.41,4.51,4.51,0,0,0,.68.41L135,232.41l-.56,1.42-14.18-7.1a3.87,3.87,0,0,0-1.16.16,2.36,2.36,0,0,0-.89.5,2.29,2.29,0,0,0-.58.88,3.86,3.86,0,0,0-.2,1.3,5.7,5.7,0,0,0,.11,1.2,1.82,1.82,0,0,0,.39.8,1.79,1.79,0,0,0,.78.48,5.09,5.09,0,0,0,1.24.25,17.86,17.86,0,0,0,1.81.1h4.49c.58,0,1.1,0,1.54-.09a4.54,4.54,0,0,0,1.12-.25,1.79,1.79,0,0,0,.73-.48,2,2,0,0,0,.42-.8,5.2,5.2,0,0,0,.12-1.21Z"/><path class="cls-7" d="M143.2,234.11V220.5h11.35a8.2,8.2,0,0,1,2.06.21,2.71,2.71,0,0,1,1.2.61,2.06,2.06,0,0,1,.56,1,6.31,6.31,0,0,1,.14,1.38,4.28,4.28,0,0,1-.1,1,3.57,3.57,0,0,1-.25.76,2.16,2.16,0,0,1-.37.53,2.25,2.25,0,0,1-.41.36,2.31,2.31,0,0,1-1.14.38,3.26,3.26,0,0,1,1.42.39,3,3,0,0,1,.52.38,2.25,2.25,0,0,1,.45.55,3.44,3.44,0,0,1,.32.78,3.65,3.65,0,0,1,.13,1,12.55,12.55,0,0,1-.07,1.29,3.36,3.36,0,0,1-.27,1.06,2.54,2.54,0,0,1-.58.83,3.1,3.1,0,0,1-1,.58,6.48,6.48,0,0,1-1.55.35,17.15,17.15,0,0,1-2.19.12Zm9.63-7.94q.87,0,1.5,0a8.46,8.46,0,0,0,1.07-.13,2.21,2.21,0,0,0,.72-.28,1.21,1.21,0,0,0,.43-.44,2,2,0,0,0,.21-.66,8,8,0,0,0,.05-.92,2.93,2.93,0,0,0-.12-.92,1,1,0,0,0-.45-.54,2.08,2.08,0,0,0-.86-.26,10.72,10.72,0,0,0-1.4-.07h-9.07v4.25Zm0,6.52c.66,0,1.24,0,1.72,0a7.61,7.61,0,0,0,1.23-.13,2.78,2.78,0,0,0,.82-.29,1.38,1.38,0,0,0,.48-.51,2.06,2.06,0,0,0,.23-.76,7,7,0,0,0,.07-1.09,4.51,4.51,0,0,0-.07-.87,1.48,1.48,0,0,0-.23-.62,1.29,1.29,0,0,0-.48-.41,3.23,3.23,0,0,0-.82-.24,9.13,9.13,0,0,0-1.23-.12c-.48,0-1.06,0-1.72,0h-7.92v5.1Z"/><path class="cls-7" d="M161.75,228.89a8.16,8.16,0,0,1,.34-2.57,3.32,3.32,0,0,1,1.08-1.62,4.39,4.39,0,0,1,1.93-.84,17.46,17.46,0,0,1,5.77,0,4.39,4.39,0,0,1,1.93.84,3.41,3.41,0,0,1,1.09,1.62,8.49,8.49,0,0,1,.33,2.57,8.87,8.87,0,0,1-.33,2.63,3.48,3.48,0,0,1-1.09,1.66,4.42,4.42,0,0,1-1.93.87,16.77,16.77,0,0,1-5.77,0,4.42,4.42,0,0,1-1.93-.87,3.4,3.4,0,0,1-1.08-1.66A8.53,8.53,0,0,1,161.75,228.89Zm1.7,0q0,.84.06,1.47a3.93,3.93,0,0,0,.24,1.07,1.76,1.76,0,0,0,.48.72,2.22,2.22,0,0,0,.82.45,5.3,5.3,0,0,0,1.22.23c.48,0,1,.06,1.72.06s1.07,0,1.52,0a6,6,0,0,0,1.16-.18,2.85,2.85,0,0,0,.86-.4,1.85,1.85,0,0,0,.57-.71,4,4,0,0,0,.32-1.09,10.23,10.23,0,0,0,.1-1.58,9.55,9.55,0,0,0-.1-1.53,3.88,3.88,0,0,0-.32-1.07,1.9,1.9,0,0,0-.57-.68,2.6,2.6,0,0,0-.86-.37,6.07,6.07,0,0,0-1.16-.17c-.45,0-1,0-1.52,0s-1.08,0-1.52,0a6.07,6.07,0,0,0-1.17.17,2.6,2.6,0,0,0-.86.37,2,2,0,0,0-.57.68,3.88,3.88,0,0,0-.32,1.07A9.55,9.55,0,0,0,163.45,228.89Z"/><path class="cls-7" d="M179.16,222.21h-1.7V220.5h1.7Zm-1.7,1.7h1.7v10.2h-1.7Z"/><path class="cls-7" d="M183.25,220.5H185v13.61h-1.7Z"/><path class="cls-7" d="M194.43,234.3a15,15,0,0,1-2.89-.23,4.67,4.67,0,0,1-1.93-.81,3.32,3.32,0,0,1-1.08-1.54,7.6,7.6,0,0,1-.34-2.43,9.77,9.77,0,0,1,.34-2.77,3.75,3.75,0,0,1,1.08-1.74,4.28,4.28,0,0,1,1.93-.9,14,14,0,0,1,2.89-.26,10.67,10.67,0,0,1,2.1.18,5.72,5.72,0,0,1,1.53.51,3.38,3.38,0,0,1,1,.82,3.94,3.94,0,0,1,.62,1,4.33,4.33,0,0,1,.31,1.24,11.86,11.86,0,0,1,.09,1.5l-.14.56H189.89a6.07,6.07,0,0,0,.24,1.87,1.84,1.84,0,0,0,.76,1.07,3.26,3.26,0,0,0,1.4.43,21.28,21.28,0,0,0,2.14.09c.78,0,1.42,0,1.94-.07a4.64,4.64,0,0,0,1.21-.23,1.28,1.28,0,0,0,.64-.5,1.62,1.62,0,0,0,.18-.81h1.7a3.18,3.18,0,0,1-.29,1.4,2.16,2.16,0,0,1-.95.94,5.43,5.43,0,0,1-1.75.52A18.34,18.34,0,0,1,194.43,234.3Zm0-9.26c-.57,0-1.07,0-1.52,0a6.41,6.41,0,0,0-1.17.15,2.75,2.75,0,0,0-.85.35,1.82,1.82,0,0,0-.57.53,2,2,0,0,0-.32.86,7.2,7.2,0,0,0-.11,1.33h8.51a5,5,0,0,0-.22-1.63,2.27,2.27,0,0,0-.7-1,2.88,2.88,0,0,0-1.23-.52A10.52,10.52,0,0,0,194.43,225Z"/><path class="cls-7" d="M211.84,227.23a5.16,5.16,0,0,0-.09-1.06,1.07,1.07,0,0,0-.44-.67,2.33,2.33,0,0,0-1-.36,12.84,12.84,0,0,0-1.85-.1,7.28,7.28,0,0,0-1.86.2,2.74,2.74,0,0,0-1.12.56,1.77,1.77,0,0,0-.56.87,4,4,0,0,0-.14,1.12v6.32h-1.7v-10.2h1.7v1.62a2.16,2.16,0,0,1,1.05-1.23,5,5,0,0,1,1.26-.48,9.68,9.68,0,0,1,4.1,0,2.88,2.88,0,0,1,1.3.69,2.3,2.3,0,0,1,.63,1.13,6.54,6.54,0,0,1,.16,1.55Z"/><path class="cls-7" d="M228.88,226.46a23.38,23.38,0,0,1,2.4.11,8.18,8.18,0,0,1,1.69.35,3.18,3.18,0,0,1,1.09.56,2.54,2.54,0,0,1,.63.77,3,3,0,0,1,.29,1,10.15,10.15,0,0,1,.07,1.15,5.36,5.36,0,0,1-.12,1.16,2.85,2.85,0,0,1-.39,1,3.09,3.09,0,0,1-.77.81,4.94,4.94,0,0,1-1.24.6,9.58,9.58,0,0,1-1.81.37,20,20,0,0,1-2.48.13H226a21,21,0,0,1-2.23-.1,8.46,8.46,0,0,1-1.64-.3,4.1,4.1,0,0,1-1.15-.5,2.47,2.47,0,0,1-.72-.72,2.81,2.81,0,0,1-.38-.94,6,6,0,0,1-.1-1.16h1.7a2.94,2.94,0,0,0,.23,1.27,1.52,1.52,0,0,0,.76.69,4.48,4.48,0,0,0,1.4.28c.57,0,1.29.06,2.13.06h2.27a18.53,18.53,0,0,0,2.47-.14,4.9,4.9,0,0,0,1.57-.46,1.81,1.81,0,0,0,.83-.81,3,3,0,0,0,.23-1.23,3.75,3.75,0,0,0-.16-1.2,1.39,1.39,0,0,0-.65-.77,3.65,3.65,0,0,0-1.36-.41,17.43,17.43,0,0,0-2.29-.12h-2.34a25.63,25.63,0,0,1-2.67-.11,11.7,11.7,0,0,1-1.86-.33,4.29,4.29,0,0,1-1.21-.54,2.36,2.36,0,0,1-.68-.74,2.62,2.62,0,0,1-.31-.93,7.63,7.63,0,0,1-.07-1.1,5.91,5.91,0,0,1,.11-1.15,2.43,2.43,0,0,1,.41-1,2.81,2.81,0,0,1,.83-.77,4.54,4.54,0,0,1,1.34-.56,11.24,11.24,0,0,1,2-.34,26.57,26.57,0,0,1,2.71-.12h1.7c.85,0,1.59,0,2.23.09a9.24,9.24,0,0,1,1.65.3,4.23,4.23,0,0,1,1.15.49,2.56,2.56,0,0,1,.72.71,2.7,2.7,0,0,1,.38.94,5.79,5.79,0,0,1,.11,1.16h-1.71a2.68,2.68,0,0,0-.23-1.25,1.42,1.42,0,0,0-.76-.68,4.16,4.16,0,0,0-1.4-.28c-.58,0-1.29-.06-2.14-.06h-1.7a26.56,26.56,0,0,0-2.8.12,6,6,0,0,0-1.74.4,1.72,1.72,0,0,0-.88.76,2.54,2.54,0,0,0-.25,1.2,4.7,4.7,0,0,0,.06.79,1.47,1.47,0,0,0,.25.6,1.49,1.49,0,0,0,.54.44,3.25,3.25,0,0,0,.91.29,9.25,9.25,0,0,0,1.39.17c.55,0,1.2.05,1.95.05Z"/><path class="cls-7" d="M244.24,223.62a14.06,14.06,0,0,1,2.89.26,4.47,4.47,0,0,1,1.93.87,3.58,3.58,0,0,1,1.08,1.64,8.63,8.63,0,0,1,.33,2.59,8.52,8.52,0,0,1-.33,2.58,3.53,3.53,0,0,1-1.08,1.64,4.45,4.45,0,0,1-1.93.85,14.12,14.12,0,0,1-2.89.25,11.58,11.58,0,0,1-2-.14,6.31,6.31,0,0,1-1.33-.35,2.69,2.69,0,0,1-.79-.46,1.91,1.91,0,0,1-.39-.46v4.62H238v-13.6h1.7v.94a2,2,0,0,1,.39-.39,2.51,2.51,0,0,1,.79-.4,6.56,6.56,0,0,1,1.33-.31A12.78,12.78,0,0,1,244.24,223.62Zm0,1.42c-.57,0-1.07,0-1.52,0a6.26,6.26,0,0,0-1.17.18,2.39,2.39,0,0,0-.85.4,2,2,0,0,0-.57.69,3.65,3.65,0,0,0-.33,1.07,11.09,11.09,0,0,0-.1,1.53,11.45,11.45,0,0,0,.1,1.56,3.62,3.62,0,0,0,.33,1.08,2,2,0,0,0,.57.69,2.56,2.56,0,0,0,.85.39,6.26,6.26,0,0,0,1.17.18c.45,0,.95,0,1.52,0s1.23,0,1.71-.06a6.2,6.2,0,0,0,1.23-.22,2.29,2.29,0,0,0,.82-.44,1.86,1.86,0,0,0,.48-.71,3.69,3.69,0,0,0,.24-1.05c0-.4.05-.88.05-1.43s0-1-.05-1.44a3.86,3.86,0,0,0-.24-1,1.72,1.72,0,0,0-.48-.71,2.3,2.3,0,0,0-.82-.45,5.51,5.51,0,0,0-1.23-.23Q245.23,225,244.24,225Z"/><path class="cls-7" d="M263.31,232.71a2.28,2.28,0,0,1-.4.53,2.55,2.55,0,0,1-.71.56,3.8,3.8,0,0,1-1.18.38,10.33,10.33,0,0,1-1.95.14,19.28,19.28,0,0,1-2.73-.16,6.51,6.51,0,0,1-1.86-.51,2.42,2.42,0,0,1-1-.87,2.35,2.35,0,0,1-.33-1.27,4.12,4.12,0,0,1,.18-1.3,2.26,2.26,0,0,1,.54-.9,2.5,2.5,0,0,1,.84-.57,5.61,5.61,0,0,1,1.13-.31,11.34,11.34,0,0,1,1.39-.13c.5,0,1,0,1.6,0a18.78,18.78,0,0,1,2,.1,8.94,8.94,0,0,1,1.33.26,2.88,2.88,0,0,1,.79.33,1.9,1.9,0,0,1,.38.33,13.56,13.56,0,0,0-.09-1.69,4.6,4.6,0,0,0-.27-1.17,2.17,2.17,0,0,0-.49-.75,2.14,2.14,0,0,0-.74-.42,4.88,4.88,0,0,0-1-.18c-.39,0-.83,0-1.33,0-.78,0-1.43,0-1.94.06a4.78,4.78,0,0,0-1.23.22,1.17,1.17,0,0,0-.63.47,1.37,1.37,0,0,0-.19.77h-1.7a2.85,2.85,0,0,1,.29-1.36,2.15,2.15,0,0,1,.95-.91,5.86,5.86,0,0,1,1.76-.51,20,20,0,0,1,2.69-.16,11.77,11.77,0,0,1,2.64.26,3.62,3.62,0,0,1,1.74.9,3.69,3.69,0,0,1,1,1.74,10.74,10.74,0,0,1,.3,2.77v4.82h-1.7Zm-3.95.19a14.18,14.18,0,0,0,1.88-.1,4.58,4.58,0,0,0,1.22-.31,1.47,1.47,0,0,0,.65-.53,1.35,1.35,0,0,0,.2-.73,1.12,1.12,0,0,0-.23-.71,1.53,1.53,0,0,0-.75-.48,6.55,6.55,0,0,0-1.4-.27c-.58-.05-1.29-.08-2.14-.08s-1.54,0-2.06,0a4.57,4.57,0,0,0-1.21.2,1,1,0,0,0-.57.47,2.35,2.35,0,0,0,0,1.68,1,1,0,0,0,.63.51,5,5,0,0,0,1.38.25C257.57,232.88,258.36,232.9,259.36,232.9Z"/><path class="cls-7" d="M276.75,227.23a5.16,5.16,0,0,0-.09-1.06,1.07,1.07,0,0,0-.44-.67,2.33,2.33,0,0,0-1-.36,12.93,12.93,0,0,0-1.85-.1,7.28,7.28,0,0,0-1.86.2,2.85,2.85,0,0,0-1.13.56,1.83,1.83,0,0,0-.55.87,3.94,3.94,0,0,0-.15,1.12v6.32H268v-10.2h1.7v1.62a2.18,2.18,0,0,1,.33-.61,2.31,2.31,0,0,1,.73-.62,4.75,4.75,0,0,1,1.26-.48,9.68,9.68,0,0,1,4.1,0,2.93,2.93,0,0,1,1.3.69,2.36,2.36,0,0,1,.62,1.13,6.5,6.5,0,0,1,.17,1.55Z"/><path class="cls-7" d="M285.94,234.3a14.84,14.84,0,0,1-2.88-.23,4.56,4.56,0,0,1-1.93-.81,3.27,3.27,0,0,1-1.09-1.54,7.63,7.63,0,0,1-.33-2.43,9.81,9.81,0,0,1,.33-2.77,3.69,3.69,0,0,1,1.09-1.74,4.18,4.18,0,0,1,1.93-.9,13.88,13.88,0,0,1,2.88-.26,10.85,10.85,0,0,1,2.11.18,5.76,5.76,0,0,1,1.52.51,3.42,3.42,0,0,1,1,.82,4.24,4.24,0,0,1,.62,1,4.69,4.69,0,0,1,.31,1.24,14.16,14.16,0,0,1,.08,1.5l-.14.56H281.41a6.43,6.43,0,0,0,.23,1.87,1.88,1.88,0,0,0,.76,1.07,3.3,3.3,0,0,0,1.4.43,21.28,21.28,0,0,0,2.14.09c.78,0,1.43,0,1.94-.07a4.73,4.73,0,0,0,1.22-.23,1.21,1.21,0,0,0,.63-.5,1.62,1.62,0,0,0,.18-.81h1.7a3,3,0,0,1-.29,1.4,2.11,2.11,0,0,1-.95.94,5.35,5.35,0,0,1-1.75.52A18.24,18.24,0,0,1,285.94,234.3Zm0-9.26c-.56,0-1.07,0-1.51,0a6.19,6.19,0,0,0-1.17.15,2.81,2.81,0,0,0-.86.35,1.82,1.82,0,0,0-.57.53,2.09,2.09,0,0,0-.32.86,7.28,7.28,0,0,0-.1,1.33h8.5a4.78,4.78,0,0,0-.22-1.63,2.27,2.27,0,0,0-.7-1,2.88,2.88,0,0,0-1.23-.52A10.44,10.44,0,0,0,285.94,225Z"/><path class="cls-7" d="M298.4,229.42a12.88,12.88,0,0,1-1.57-.14,4.51,4.51,0,0,1-1.1-.32,1.7,1.7,0,0,1-.69-.54,2.14,2.14,0,0,1-.36-.84,4.74,4.74,0,0,1-.11-1.09,2.45,2.45,0,0,1,.34-1.34,2.39,2.39,0,0,1,1.08-.89,6.92,6.92,0,0,1,1.93-.49,23.43,23.43,0,0,1,2.88-.15,17.6,17.6,0,0,1,2.78.18,5.42,5.42,0,0,1,1.74.54,2.11,2.11,0,0,1,.9.93,3.19,3.19,0,0,1,.25,1.33h-1.7a1.5,1.5,0,0,0-.18-.78,1.23,1.23,0,0,0-.63-.48,4.73,4.73,0,0,0-1.22-.23c-.51-.05-1.16-.07-1.94-.07s-1.56,0-2.14,0a6.84,6.84,0,0,0-1.4.17,1.4,1.4,0,0,0-.76.44,1.27,1.27,0,0,0-.23.8,3.81,3.81,0,0,0,0,.59,1.05,1.05,0,0,0,.18.47.88.88,0,0,0,.42.29,3.47,3.47,0,0,0,.75.14c.31,0,.7.05,1.17.06h1.69c.8,0,1.51,0,2.11.05a12.23,12.23,0,0,1,1.58.19,3.31,3.31,0,0,1,1.09.41,2.79,2.79,0,0,1,.7.6,1.93,1.93,0,0,1,.37.76,4.37,4.37,0,0,1,.1,1,4.55,4.55,0,0,1-.1,1,2,2,0,0,1-.38.81,2.18,2.18,0,0,1-.72.6,4.07,4.07,0,0,1-1.14.41,12.55,12.55,0,0,1-1.66.23c-.64.05-1.38.08-2.23.08a19.75,19.75,0,0,1-2.68-.16,5.62,5.62,0,0,1-1.75-.51,2.21,2.21,0,0,1-.95-.91,2.85,2.85,0,0,1-.29-1.36h1.7a1.8,1.8,0,0,0,.18.86,1.24,1.24,0,0,0,.63.52,4.33,4.33,0,0,0,1.22.25c.51,0,1.16.07,1.94.07s1.31,0,1.81,0a10.22,10.22,0,0,0,1.25-.16,2.88,2.88,0,0,0,.8-.26,1.14,1.14,0,0,0,.44-.36,1,1,0,0,0,.19-.47,3.52,3.52,0,0,0,0-.58,2.68,2.68,0,0,0,0-.52,1.07,1.07,0,0,0-.18-.45.82.82,0,0,0-.41-.34,3.38,3.38,0,0,0-.75-.19,10.61,10.61,0,0,0-1.18-.11c-.46,0-1,0-1.69,0S299,229.45,298.4,229.42Z"/><path class="cls-7" d="M314.65,234.11V220.5h1.71v12.19h10.77v1.42Z"/><path class="cls-7" d="M339.44,229.57a8.93,8.93,0,0,1-.22,2.18,3,3,0,0,1-.71,1.39,2.78,2.78,0,0,1-1.31.75,7.79,7.79,0,0,1-2,.22,8.83,8.83,0,0,1-1.94-.18,2.93,2.93,0,0,1-1.28-.6,2.37,2.37,0,0,1-.7-1.13,6.31,6.31,0,0,1-.21-1.77v-5.11H329v-1.41h2.1v-2.78h1.7v2.78h6.4v1.41h-6.4v5.11a4.93,4.93,0,0,0,.13,1.31,1.19,1.19,0,0,0,.41.67,1.48,1.48,0,0,0,.75.25q.46,0,1.14,0h.95a3,3,0,0,0,.73-.12,1.39,1.39,0,0,0,.54-.28,1.35,1.35,0,0,0,.36-.54,3.5,3.5,0,0,0,.2-.87,11.71,11.71,0,0,0,.06-1.3Z"/><path class="cls-7" d="M347.78,234.3a14,14,0,0,1-2.89-.25,4.45,4.45,0,0,1-1.93-.85,3.38,3.38,0,0,1-1.08-1.64,8.49,8.49,0,0,1-.34-2.58,8.77,8.77,0,0,1,.34-2.62,3.34,3.34,0,0,1,1.08-1.64,4.45,4.45,0,0,1,1.93-.85,14,14,0,0,1,2.89-.25,12.73,12.73,0,0,1,2,.13,6.56,6.56,0,0,1,1.33.31,2.51,2.51,0,0,1,.79.4,1.79,1.79,0,0,1,.39.4V220.5H354v13.61h-1.7v-1.6l-.42.53a3.07,3.07,0,0,1-.83.61,5.46,5.46,0,0,1-1.26.44A8.24,8.24,0,0,1,347.78,234.3Zm0-1.41c.57,0,1.07,0,1.51,0a7,7,0,0,0,1.17-.17,2.62,2.62,0,0,0,.86-.39,2,2,0,0,0,.57-.69,3.58,3.58,0,0,0,.32-1.06,9.72,9.72,0,0,0,.1-1.53,10.14,10.14,0,0,0-.1-1.58,3.78,3.78,0,0,0-.32-1.1,1.87,1.87,0,0,0-.57-.69,2.62,2.62,0,0,0-.86-.39,5.33,5.33,0,0,0-1.17-.18c-.44,0-.94,0-1.51,0s-1.23,0-1.72.06a6,6,0,0,0-1.22.22,2.2,2.2,0,0,0-.82.44,1.81,1.81,0,0,0-.49.72,4.09,4.09,0,0,0-.23,1.05c0,.41-.06.9-.06,1.45s0,1,.06,1.43a4.09,4.09,0,0,0,.23,1.05,2,2,0,0,0,.49.71,2.2,2.2,0,0,0,.82.44,6,6,0,0,0,1.22.22C346.55,232.87,347.12,232.89,347.78,232.89Z"/><path class="cls-7" d="M358.67,234.11H357v-1.7h1.7Z"/><line class="cls-3" x1="5.46" y1="243.38" x2="368.07" y2="243.38"/></svg>