<svg id="Layer_1" data-name="Layer 1" xmlns="http://www.w3.org/2000/svg" viewBox="0 0 904.35 592.29"><defs><style>.cls-1{fill:#0d3177;}.cls-2{fill:#28a6dd;}.cls-3{fill:#d22930;}.cls-4{fill:#f39820;}</style></defs><path class="cls-1" d="M0,381.62l27.86-33.29C45.67,362.53,65.53,370,86.42,370c13.42,0,20.64-4.64,20.64-12.37v-.52c0-7.48-5.93-11.62-30.44-17.29-38.44-8.76-68.1-19.6-68.1-56.76v-.5c0-33.55,26.57-57.79,69.9-57.79,30.7,0,54.69,8.26,74.3,24l-25,35.33C111.18,272.5,93.13,266.3,77.13,266.3c-12.12,0-18,5.17-18,11.62v.5c0,8.26,6.18,11.87,31.21,17.54,41.54,9,67.33,22.45,67.33,56.25v.51c0,36.88-29.15,58.81-73,58.81C52.63,411.53,22.18,401.47,0,381.62Z"/><path class="cls-1" d="M182,227.86h77.39c45.65,0,75.06,23.49,75.06,63.46v.52c0,42.56-32.76,65-77.64,65H232v51.59H182Zm73.78,89.78c17.8,0,28.63-9.29,28.63-23.49v-.5c0-15.48-10.83-23.74-28.9-23.74H232v47.73Z"/><path class="cls-1" d="M400,226.58h48.24l76.88,181.86H471.49L458.33,376.2H388.68l-12.9,32.24H323.15Zm43.86,110.66L423.77,285.9l-20.39,51.34Z"/><path class="cls-1" d="M542.8,227.86h85.39c27.6,0,46.69,7.23,58.81,19.6,10.58,10.33,16,24.26,16,42V290c0,27.6-14.71,45.91-37.15,55.45l43.08,62.95H651.14l-36.37-54.69H592.85v54.69H542.8Zm83.07,86.69c17,0,26.82-8.26,26.82-21.43v-.5c0-14.2-10.31-21.42-27.09-21.42H592.85v43.35Z"/><path class="cls-1" d="M730.48,227.22h50v73.27l62.18-73.27H902l-68.36,77.66L904.35,407.8H844.24l-45.4-67.07-18.32,20.38V407.8h-50Z"/><path class="cls-1" d="M0,94.42v-.51C0,41.27,40.51,0,95.2,0c36.88,0,60.62,15.48,76.61,37.66L134.15,66.82C123.82,53.92,112,45.66,94.68,45.66,69.4,45.66,51.6,67.07,51.6,93.39v.52c0,27.08,17.8,48.23,43.08,48.23,18.83,0,29.92-8.76,40.76-21.93l37.66,26.85c-17,23.46-40,40.75-80,40.75C41.54,187.81,0,148.34,0,94.42Z"/><path class="cls-1" d="M195.64,3.61H246V184.19H195.64Z"/><path class="cls-1" d="M323.13,47.47H269V3.61H427.35V47.47H373.18V184.19H323.13Z"/><path class="cls-1" d="M489.76,3.64h-57l55.93,92.05L513.64,46Z"/><path class="cls-2" d="M846.74,182.63c-28.61-.09-51.48-19.46-56.39-47.63-2.5-14.37.55-27.76,6.49-40.72,5.68-12.42,13.27-23.7,20.89-35,9.34-13.81,17.91-28,24.07-43.6,1.38-3.48,2.46-7.07,3.75-10.58a5.89,5.89,0,0,1,1.26-1.5c.48.52,1.17,1,1.41,1.57,1.68,4.45,3.09,9,4.91,13.39,6.06,14.55,14.23,27.93,23,40.94,8.37,12.37,16.69,24.77,22.44,38.65,6.2,15,7.95,30.21,2.42,45.71-7.92,22.21-23.64,35-47.06,38.28C851.58,182.5,849.15,182.49,846.74,182.63ZM810.66,89.92c-.46.42-.64.52-.73.68-8.45,15.38-11.53,31.54-6.51,48.67,3.47,11.85,9.92,21.66,20.81,28.08a35.66,35.66,0,0,0,16.23,5,7.33,7.33,0,0,0,8-6.13,7.81,7.81,0,0,0-5.5-8.7c-.85-.28-1.71-.51-2.56-.77-8.17-2.53-15.6-6.38-20.85-13.31-7.58-10-11.06-21.6-11.53-34.1C807.77,102.9,809,96.59,810.66,89.92Z"/><path class="cls-3" d="M703.32,96.45c-15,14.8-26.29,30.21-18.77,52.94-6.56-1.62-9.87-6.09-13.13-11.47a33.3,33.3,0,0,0-3.36,23.19,36.21,36.21,0,0,0,11.74,20,11.18,11.18,0,0,1-2.11-.49c-20-9-33.34-23.65-36.62-45.7-2.64-17.77,2.26-34.26,12.72-48.73,6.4-8.84,13.8-17,20.89-25.3,9.5-11.16,17.08-23.25,18.53-38.23.48-5,.1-10,.06-15,0-1.31-.27-2.61-.42-3.93.45,0,.74-.09.85,0,16.12,14.51,29.6,31,37.69,51.36,6.77,17.07,6.42,34.22.7,51.45-.24.74-.49,1.47-.74,2.23,7.13.6,14.81-6,26.28-22.62,9.5,18.31,11.23,36.94,3.87,56-8.1,21-23.41,34.23-44.77,40.54l-.76-.79a12.64,12.64,0,0,0,1.56-.9c13.19-10.28,16.33-25.13,7.82-39.57-3.09-5.23-7.2-9.91-11.18-14.56-5.69-6.67-10.48-13.66-10.83-22.8C703.25,101.79,703.32,99.56,703.32,96.45Z"/><polygon class="cls-4" points="578.99 73.01 622.69 73.01 558.88 151.51 547.28 165.81 513.25 207.77 529.49 165.81 549.79 113.22 499.33 113.22 508.03 96.02 530.46 51.74 554.82 3.21 625.98 3.21 578.99 73.01"/><path class="cls-1" d="M0,591.53v-55H28.81v9.31H10.52v12.65h14v9.3H10.52v14.48H29.58v9.3Z"/><path class="cls-1" d="M39.64,591.53v-55H50.16v45.74H67.08v9.3Z"/><path class="cls-1" d="M75,591.53v-55h28.81v9.31H85.53v12.65H99.47v9.3H85.53v14.48h19v9.3Z"/><path class="cls-1" d="M124.25,575.22q0,4.57,1.83,6.17a8.71,8.71,0,0,0,10.06,0q1.83-1.59,1.83-6.17v-3.66h10.52v2.29a24.85,24.85,0,0,1-1.3,8.61,14.71,14.71,0,0,1-3.58,5.68,13.64,13.64,0,0,1-5.49,3.16,25.31,25.31,0,0,1-14,0,13.64,13.64,0,0,1-5.49-3.16,14.6,14.6,0,0,1-3.58-5.68,24.85,24.85,0,0,1-1.3-8.61V554.18a24.85,24.85,0,0,1,1.3-8.61,14.6,14.6,0,0,1,3.58-5.68,13.77,13.77,0,0,1,5.49-3.17,25.31,25.31,0,0,1,14,0,13.77,13.77,0,0,1,5.49,3.17,14.71,14.71,0,0,1,3.58,5.68,24.85,24.85,0,0,1,1.3,8.61v.15H138v-1.52q0-4.57-1.83-6.18a8.71,8.71,0,0,0-10.06,0q-1.83,1.61-1.83,6.18Z"/><path class="cls-1" d="M190.41,536.49v9.31H178.14v45.73H167.62V545.8H155.35v-9.31Z"/><path class="cls-1" d="M222.88,591.53l-9.14-22.41h-5v22.41H198.19v-55h15.24q9.52,0,14.1,4.31T232.11,553a18.13,18.13,0,0,1-2,8.77A11.51,11.51,0,0,1,223.8,567l10.37,24.54Zm-14.17-31.1h5.41a7.92,7.92,0,0,0,5.49-1.79c1.32-1.19,2-3.14,2-5.83s-.66-4.64-2-5.83a7.88,7.88,0,0,0-5.49-1.79h-5.41Z"/><path class="cls-1" d="M242.7,591.53v-55h10.52v55Z"/><path class="cls-1" d="M274.42,575.22q0,4.57,1.82,6.17a8.72,8.72,0,0,0,10.07,0q1.83-1.59,1.83-6.17v-3.66h10.51v2.29a25.11,25.11,0,0,1-1.29,8.61,14.83,14.83,0,0,1-3.58,5.68,13.77,13.77,0,0,1-5.49,3.16,25.35,25.35,0,0,1-14,0,13.77,13.77,0,0,1-5.49-3.16,14.71,14.71,0,0,1-3.58-5.68,25.11,25.11,0,0,1-1.29-8.61V554.18a25.11,25.11,0,0,1,1.29-8.61,14.71,14.71,0,0,1,3.58-5.68,13.91,13.91,0,0,1,5.49-3.17,25.35,25.35,0,0,1,14,0,13.91,13.91,0,0,1,5.49,3.17,14.83,14.83,0,0,1,3.58,5.68,25.11,25.11,0,0,1,1.29,8.61v.15H288.14v-1.52q0-4.57-1.83-6.18a8.72,8.72,0,0,0-10.07,0q-1.82,1.61-1.82,6.18Z"/><path class="cls-1" d="M373.81,566.22q-1.29,3.43-2.85,6.86a61.34,61.34,0,0,1-3.7,6.86,21.45,21.45,0,0,0,3.58,2,13.46,13.46,0,0,0,4,1.06v9.3a24.42,24.42,0,0,1-3.66-.26,15.85,15.85,0,0,1-3.31-.92,19.42,19.42,0,0,1-3.32-1.71,29,29,0,0,1-3.58-2.75,19.11,19.11,0,0,1-13.8,5.64,26.13,26.13,0,0,1-7.28-.95,15.5,15.5,0,0,1-5.68-2.9,13.31,13.31,0,0,1-3.66-4.76,15.81,15.81,0,0,1-1.29-6.63A17.62,17.62,0,0,1,330,572a15.34,15.34,0,0,1,4.84-7.36,45.32,45.32,0,0,1,3.78-2.82,32.9,32.9,0,0,1-3.36-6.1,16.52,16.52,0,0,1-1.14-6.25,15,15,0,0,1,1.14-6.09,12.24,12.24,0,0,1,3.09-4.31,12.38,12.38,0,0,1,4.5-2.52,17.94,17.94,0,0,1,5.37-.8,13.7,13.7,0,0,1,5.19,1,12.28,12.28,0,0,1,7.77,11.47,11.72,11.72,0,0,1-1,4.8,18,18,0,0,1-2.44,4,23.67,23.67,0,0,1-3.39,3.4q-1.9,1.56-3.82,3.08a79.24,79.24,0,0,0,9.84,11.21q1.52-2.67,2.82-5.26a32.9,32.9,0,0,0,2.13-5.49Zm-34,9.46a8.61,8.61,0,0,0,.64,3.46,7.06,7.06,0,0,0,1.76,2.48,7.34,7.34,0,0,0,2.51,1.49,8.81,8.81,0,0,0,2.94.49,9.62,9.62,0,0,0,4-.87,9,9,0,0,0,3.05-2.18,64.66,64.66,0,0,1-5.87-5.67q-2.67-2.94-5.11-6.06a14.7,14.7,0,0,0-2.86,2.89A6.59,6.59,0,0,0,339.82,575.68Zm7.77-33.54a4.14,4.14,0,0,0-3.54,1.71,7,7,0,0,0-1.26,4.23,10.7,10.7,0,0,0,.88,4.42,37.35,37.35,0,0,0,2.25,4.27c.71-.66,1.45-1.32,2.24-2a18.51,18.51,0,0,0,2.14-2.1,10.35,10.35,0,0,0,1.56-2.44,7.07,7.07,0,0,0,.61-3,5.51,5.51,0,0,0-.3-1.79,5.69,5.69,0,0,0-.92-1.64,4.68,4.68,0,0,0-1.52-1.22A4.82,4.82,0,0,0,347.59,542.14Z"/><path class="cls-1" d="M406.51,536.49H421.3q8.54,0,13.15,3.51t4.61,10.67q0,7.32-6.78,11.44a34.75,34.75,0,0,1,3.69,2.7,12.13,12.13,0,0,1,2.52,2.9,11.72,11.72,0,0,1,1.41,3.47,19.72,19.72,0,0,1,.46,4.5,17.25,17.25,0,0,1-1.34,7.09,13.08,13.08,0,0,1-3.73,4.91,15.93,15.93,0,0,1-5.79,2.9,28.3,28.3,0,0,1-7.59.95h-15.4ZM417,558.3h3.66a8.5,8.5,0,0,0,5.72-1.83,5.86,5.86,0,0,0,2.13-4.65,6.5,6.5,0,0,0-1.79-4.84c-1.19-1.2-3-1.79-5.52-1.79H417Zm0,24.54h4.42q4.13,0,6.25-2.17a7.93,7.93,0,0,0,2.14-5.83,7,7,0,0,0-2.52-5.91,10.5,10.5,0,0,0-6.63-1.94H417Z"/><path class="cls-1" d="M449.51,554.18a25.11,25.11,0,0,1,1.29-8.61,14.71,14.71,0,0,1,3.58-5.68,13.91,13.91,0,0,1,5.49-3.17,25.35,25.35,0,0,1,14,0,13.91,13.91,0,0,1,5.49,3.17,14.83,14.83,0,0,1,3.58,5.68,25.11,25.11,0,0,1,1.29,8.61v19.67a25.11,25.11,0,0,1-1.29,8.61,14.83,14.83,0,0,1-3.58,5.68,13.77,13.77,0,0,1-5.49,3.16,25.35,25.35,0,0,1-14,0,13.77,13.77,0,0,1-5.49-3.16,14.71,14.71,0,0,1-3.58-5.68,25.11,25.11,0,0,1-1.29-8.61Zm10.51,21q0,4.57,1.83,6.17a8.72,8.72,0,0,0,10.07,0c1.21-1.06,1.83-3.12,1.83-6.17V552.81c0-3-.62-5.11-1.83-6.18a8.72,8.72,0,0,0-10.07,0q-1.83,1.61-1.83,6.18Z"/><path class="cls-1" d="M494.94,591.53v-55h10.52v55Z"/><path class="cls-1" d="M517,591.53v-55h10.52v45.74h16.93v9.3Z"/><path class="cls-1" d="M552.41,591.53v-55h28.81v9.31H562.93v12.65h14v9.3h-14v14.48H582v9.3Z"/><path class="cls-1" d="M616.74,591.53l-9.14-22.41h-5v22.41H592.05v-55h15.24q9.53,0,14.1,4.31T626,553a18.13,18.13,0,0,1-2,8.77,11.51,11.51,0,0,1-6.36,5.26L628,591.53Zm-14.17-31.1H608a7.92,7.92,0,0,0,5.49-1.79c1.32-1.19,2-3.14,2-5.83s-.66-4.64-2-5.83a7.88,7.88,0,0,0-5.49-1.79h-5.41Z"/><path class="cls-1" d="M681.92,551.82a13.91,13.91,0,0,0-3.13-5.64,6.34,6.34,0,0,0-4.57-1.76,5.62,5.62,0,0,0-4.31,1.6,6.28,6.28,0,0,0-1.48,4.43,4.74,4.74,0,0,0,1.75,3.62,24.78,24.78,0,0,0,4.35,3q2.58,1.44,5.64,3.08a32.83,32.83,0,0,1,5.64,3.85,20.16,20.16,0,0,1,4.34,5.26,14.47,14.47,0,0,1,1.75,7.32,17,17,0,0,1-1.18,6.48,13.44,13.44,0,0,1-3.43,4.95,15.27,15.27,0,0,1-5.52,3.17,23.3,23.3,0,0,1-7.4,1.1,17.57,17.57,0,0,1-11.16-3.66q-4.69-3.66-6.83-11.81l10.37-2.21a15.27,15.27,0,0,0,1.33,4.23,10.13,10.13,0,0,0,2,2.78,7.36,7.36,0,0,0,2.4,1.53,7.15,7.15,0,0,0,2.41.45,6.58,6.58,0,0,0,4.61-1.71,6.86,6.86,0,0,0,.11-9.3,21.31,21.31,0,0,0-4.34-3.47q-2.6-1.61-5.64-3.16a34.46,34.46,0,0,1-5.64-3.59,19.31,19.31,0,0,1-4.35-4.68,11.69,11.69,0,0,1-1.75-6.56c0-4.77,1.38-8.54,4.15-11.28s6.9-4.12,12.39-4.12a19,19,0,0,1,6.33,1,15.68,15.68,0,0,1,8.5,7,19.94,19.94,0,0,1,2.09,5.33Z"/><path class="cls-1" d="M703.19,591.53v-55h15.16q9.76,0,14.53,4.31T737.64,553q0,7.86-4.76,12.16t-14.53,4.3H713.7v22.11Zm10.51-30.79h5.65q7.77,0,7.77-7.78t-7.77-7.77H713.7Z"/><path class="cls-1" d="M739.93,591.53l13.64-55h13.49l13.27,55H770.27l-2.67-11.59H753l-3,11.59Zm15-20.88h10.45l-5.11-22.26h-.15Z"/><path class="cls-1" d="M812.27,591.53l-9.15-22.41h-5v22.41H787.57v-55h15.24q9.54,0,14.11,4.31T821.49,553a18.25,18.25,0,0,1-1.94,8.77,11.57,11.57,0,0,1-6.37,5.26l10.37,24.54Zm-14.18-31.1h5.41a7.91,7.91,0,0,0,5.49-1.79c1.32-1.19,2-3.14,2-5.83s-.66-4.64-2-5.83a7.86,7.86,0,0,0-5.49-1.79h-5.41Z"/><path class="cls-1" d="M831.48,591.53v-55h28.81v9.31H842v12.65h14v9.3H842v14.48h19.06v9.3Z"/><path class="cls-1" d="M894.36,551.82a13.8,13.8,0,0,0-3.12-5.64,6.36,6.36,0,0,0-4.58-1.76,5.6,5.6,0,0,0-4.3,1.6,6.28,6.28,0,0,0-1.49,4.43,4.74,4.74,0,0,0,1.75,3.62,24.78,24.78,0,0,0,4.35,3q2.6,1.44,5.64,3.08a32.83,32.83,0,0,1,5.64,3.85,20,20,0,0,1,4.35,5.26,14.58,14.58,0,0,1,1.75,7.32,17.16,17.16,0,0,1-1.18,6.48,13.68,13.68,0,0,1-3.43,4.95,15.31,15.31,0,0,1-5.53,3.17,23.28,23.28,0,0,1-7.39,1.1,17.6,17.6,0,0,1-11.17-3.66q-4.7-3.66-6.82-11.81l10.36-2.21a15.26,15.26,0,0,0,1.34,4.23,9.93,9.93,0,0,0,2,2.78,7,7,0,0,0,4.8,2,6.56,6.56,0,0,0,4.61-1.71,6.24,6.24,0,0,0,1.87-4.84,6.31,6.31,0,0,0-1.75-4.46,21.12,21.12,0,0,0-4.35-3.47q-2.6-1.61-5.64-3.16a35.33,35.33,0,0,1-5.64-3.59,19.07,19.07,0,0,1-4.34-4.68,11.7,11.7,0,0,1-1.76-6.56c0-4.77,1.39-8.54,4.16-11.28s6.89-4.12,12.38-4.12a19,19,0,0,1,6.33,1,15.78,15.78,0,0,1,4.95,2.79,15.57,15.57,0,0,1,3.55,4.23,19.29,19.29,0,0,1,2.09,5.33Z"/><rect class="cls-1" y="468.11" width="904.35" height="7.96"/></svg>