<svg id="Layer_1" data-name="Layer 1" xmlns="http://www.w3.org/2000/svg" viewBox="0 0 1000 617.69"><defs><style>.cls-1{fill:#0d3177;}.cls-2{fill:#28a6dd;}.cls-3{fill:#d22930;}.cls-4{fill:#f39820;}</style></defs><path class="cls-1" d="M0,422l30.81-36.81c19.69,15.7,41.65,24,64.75,24,14.84,0,22.83-5.14,22.83-13.68v-.58c0-8.27-6.56-12.85-33.67-19.12-42.5-9.68-75.3-21.67-75.3-62.76v-.55c0-37.1,29.38-63.9,77.3-63.9,33.94,0,60.47,9.13,82.15,26.52L141.2,314.14c-18.26-12.82-38.22-19.67-55.91-19.67-13.4,0-20,5.71-20,12.84v.56c0,9.13,6.84,13.12,34.51,19.39,45.93,10,74.45,24.83,74.45,62.2V390c0,40.79-32.24,65-80.72,65C58.2,455.06,24.53,443.93,0,422Z"/><path class="cls-1" d="M201.2,252h85.58c50.48,0,83,26,83,70.17v.58c0,47.06-36.22,71.89-85.86,71.89H256.54v57H201.2Zm81.59,99.27c19.68,0,31.65-10.26,31.65-26v-.56c0-17.12-12-26.25-31.95-26.25H256.54v52.77Z"/><path class="cls-1" d="M442.34,250.55h53.34l85,201.09H521.36L506.81,416h-77l-14.26,35.65h-58.2Zm48.5,122.35-22.25-56.76L446.05,372.9Z"/><path class="cls-1" d="M600.21,252h94.42c30.52,0,51.63,8,65,21.67,11.7,11.43,17.69,26.83,17.69,46.5v.58c0,30.52-16.26,50.78-41.08,61.32l47.64,69.61H720L679.8,391.16H655.55v60.48H600.21Zm91.85,95.86c18.83,0,29.66-9.13,29.66-23.69v-.56c0-15.7-11.4-23.69-30-23.69H655.55v47.94Z"/><path class="cls-1" d="M807.74,251.25h55.34v81l68.75-81h65.6l-75.59,85.87L1000,450.93H933.54l-50.21-74.16L863.08,399.3v51.63H807.74Z"/><path class="cls-1" d="M0,104.4v-.55C0,45.64,44.79,0,105.26,0c40.79,0,67,17.12,84.72,41.65L148.34,73.88c-11.42-14.26-24.54-23.39-43.65-23.39-27.95,0-47.63,23.67-47.63,52.78v.58c0,29.94,19.68,53.32,47.63,53.32,20.83,0,33.09-9.68,45.08-24.24l41.64,29.68c-18.82,25.94-44.21,45.06-88.43,45.06C45.93,207.67,0,164,0,104.4Z"/><path class="cls-1" d="M216.33,4H272V203.67H216.33Z"/><path class="cls-1" d="M357.31,52.49h-59.9V4H472.55v48.5h-59.9V203.67H357.31Z"/><path class="cls-1" d="M541.56,4h-63l61.83,101.8L568,50.88Z"/><path class="cls-2" d="M936.3,201.94c-31.64-.09-56.92-21.52-62.35-52.67-2.77-15.89.61-30.68,7.17-45,6.28-13.73,14.67-26.2,23.1-38.65,10.33-15.27,19.8-31,26.62-48.22,1.52-3.84,2.72-7.82,4.15-11.7.23-.63.91-1.11,1.39-1.66.53.58,1.29,1.06,1.55,1.74,1.86,4.92,3.42,10,5.44,14.81,6.7,16.09,15.73,30.88,25.46,45.27,9.25,13.68,18.46,27.38,24.82,42.74,6.85,16.53,8.79,33.4,2.67,50.54-8.76,24.56-26.14,38.76-52,42.32C941.65,201.81,939,201.79,936.3,201.94ZM896.4,99.43c-.51.47-.71.58-.8.75-9.35,17-12.75,34.88-7.2,53.82,3.83,13.1,11,24,23,31.05a39.42,39.42,0,0,0,18,5.54,8.1,8.1,0,0,0,8.83-6.78,8.63,8.63,0,0,0-6.09-9.61c-.93-.32-1.88-.57-2.82-.86-9-2.79-17.26-7.05-23-14.72-8.39-11.1-12.24-23.88-12.75-37.7C893.21,113.78,894.52,106.81,896.4,99.43Z"/><path class="cls-3" d="M779.5,106.65c-16.6,16.37-29.07,33.41-20.75,58.54-7.26-1.79-10.92-6.74-14.52-12.68a36.77,36.77,0,0,0-3.72,25.64c1.78,8.79,6.28,16,13,22.08a11.8,11.8,0,0,1-2.33-.54c-22.11-9.93-36.87-26.15-40.49-50.53-2.92-19.66,2.5-37.89,14.06-53.89,7.08-9.78,15.26-18.76,23.1-28C758.33,55,766.72,41.58,768.32,25c.53-5.49.11-11.08.06-16.62a43.2,43.2,0,0,0-.46-4.34c.49,0,.82-.1.94,0,17.82,16.05,32.73,34.24,41.68,56.8,7.48,18.88,7.1,37.84.77,56.9l-.82,2.46c7.89.66,16.38-6.63,29.07-25,10.5,20.26,12.41,40.85,4.27,61.91-9,23.18-25.89,37.85-49.5,44.82l-.84-.87a15.35,15.35,0,0,0,1.72-1c14.59-11.37,18.06-27.79,8.65-43.75-3.42-5.79-8-11-12.36-16.11-6.3-7.37-11.6-15.1-12-25.21C779.42,112.55,779.5,110.09,779.5,106.65Z"/><polygon class="cls-4" points="643.65 95.33 701.11 95.33 617.21 198.56 601.95 217.37 557.2 272.55 578.56 217.37 605.25 148.22 538.89 148.22 550.34 125.59 579.83 67.36 611.87 3.54 705.43 3.54 643.65 95.33"/><path class="cls-1" d="M26.45,610.93v6.49H0v-38.1H26v6.5H7.41V595h16v6h-16v9.93Z"/><path class="cls-1" d="M44.59,617.42v-38.1H52v31.61H71.42v6.49Z"/><path class="cls-1" d="M114.77,610.93v6.49H88.32v-38.1h26v6.5H95.72V595h16v6h-16v9.93Z"/><path class="cls-1" d="M129.79,598.05a19.54,19.54,0,0,1,5-13,18.07,18.07,0,0,1,13.82-6,17.3,17.3,0,0,1,9.09,2.31,14.38,14.38,0,0,1,5.66,6l-5.63,3.92a9,9,0,0,0-2.52-3.38,10.07,10.07,0,0,0-3.36-1.77,12,12,0,0,0-3.46-.54,10,10,0,0,0-4.86,1.13,10.52,10.52,0,0,0-3.43,2.95,13.18,13.18,0,0,0-2.06,4.08,15.16,15.16,0,0,0-.7,4.56,14.56,14.56,0,0,0,.8,4.8,13.37,13.37,0,0,0,2.28,4.13,11.08,11.08,0,0,0,3.54,2.85,10,10,0,0,0,4.54,1,11.32,11.32,0,0,0,3.54-.59,10.1,10.1,0,0,0,3.38-1.88,9.23,9.23,0,0,0,2.52-3.38l6,3.54a11.75,11.75,0,0,1-3.73,4.83,18.34,18.34,0,0,1-5.68,3,20.2,20.2,0,0,1-6.26,1,16.36,16.36,0,0,1-7.43-1.69,19.24,19.24,0,0,1-5.82-4.51,21.55,21.55,0,0,1-3.84-6.33A19.48,19.48,0,0,1,129.79,598.05Z"/><path class="cls-1" d="M209.32,585.82H197.19v31.6h-7.35v-31.6H177.61v-6.5h31.71Z"/><path class="cls-1" d="M226.43,617.42v-38.1h16.9a10.9,10.9,0,0,1,4.81,1.08,12.34,12.34,0,0,1,3.86,2.89,13.5,13.5,0,0,1,2.52,4.08,12.52,12.52,0,0,1,.89,4.62,13,13,0,0,1-.83,4.61,12,12,0,0,1-2.39,3.89,10.67,10.67,0,0,1-3.65,2.6l8.69,14.33h-8.15l-7.84-12.77h-7.4v12.77Zm7.41-19.26h9.28a3.91,3.91,0,0,0,2.47-.84,5.87,5.87,0,0,0,1.72-2.22A7.33,7.33,0,0,0,248,592a6.6,6.6,0,0,0-.75-3.17,6.37,6.37,0,0,0-1.88-2.2,4.14,4.14,0,0,0-2.47-.8h-9Z"/><path class="cls-1" d="M274.46,617.42v-38.1h7.4v38.1Z"/><path class="cls-1" d="M299.83,598.05a19.54,19.54,0,0,1,5-13,18.07,18.07,0,0,1,13.82-6,17.3,17.3,0,0,1,9.09,2.31,14.38,14.38,0,0,1,5.66,6l-5.63,3.92a9,9,0,0,0-2.52-3.38,10.07,10.07,0,0,0-3.36-1.77,12,12,0,0,0-3.46-.54,10,10,0,0,0-4.86,1.13,10.52,10.52,0,0,0-3.43,2.95,13.42,13.42,0,0,0-2.07,4.08,15.47,15.47,0,0,0-.69,4.56,14.56,14.56,0,0,0,.8,4.8,13.37,13.37,0,0,0,2.28,4.13A11.08,11.08,0,0,0,314,610.1a10,10,0,0,0,4.54,1,11.32,11.32,0,0,0,3.54-.59,10.1,10.1,0,0,0,3.38-1.88,9.23,9.23,0,0,0,2.52-3.38l6,3.54a11.75,11.75,0,0,1-3.73,4.83,18.34,18.34,0,0,1-5.68,3,20.2,20.2,0,0,1-6.26,1,16.36,16.36,0,0,1-7.43-1.69,19.24,19.24,0,0,1-5.82-4.51,21.55,21.55,0,0,1-3.84-6.33A19.48,19.48,0,0,1,299.83,598.05Z"/><path class="cls-1" d="M401.35,617.42l-17.92-19c-1.54-1.63-2.75-3-3.65-4.14a13.25,13.25,0,0,1-1.93-3.15,8.45,8.45,0,0,1,.81-7.76,9.45,9.45,0,0,1,3.73-3.16,12,12,0,0,1,5.34-1.14,13.06,13.06,0,0,1,4.93.93,8.94,8.94,0,0,1,3.76,2.78,7.23,7.23,0,0,1,1.45,4.56,8.5,8.5,0,0,1-1.26,4.59,15.57,15.57,0,0,1-3.36,3.68,37.1,37.1,0,0,1-4.72,3.23c-1.29.81-2.46,1.61-3.52,2.4a10.85,10.85,0,0,0-2.46,2.48,4.89,4.89,0,0,0-.89,2.82,4.83,4.83,0,0,0,.86,2.74,5.91,5.91,0,0,0,2.39,2,7.75,7.75,0,0,0,3.41.74,9.81,9.81,0,0,0,4.47-1.1,12.26,12.26,0,0,0,3.9-3.17,15.53,15.53,0,0,0,2.7-5,19.56,19.56,0,0,0,1-6.44h5.85a24.54,24.54,0,0,1-1.56,9,20.37,20.37,0,0,1-4.19,6.76,17.78,17.78,0,0,1-6,4.19,17.6,17.6,0,0,1-6.89,1.42,14.08,14.08,0,0,1-6.82-1.57,11.51,11.51,0,0,1-4.45-4.08,10.27,10.27,0,0,1-1.56-5.53,9.7,9.7,0,0,1,1.4-5.22,15.34,15.34,0,0,1,3.51-3.95,43.46,43.46,0,0,1,4.27-3l4-2.5a10.74,10.74,0,0,0,2.47-2.06,3.47,3.47,0,0,0,.86-2.29,2.83,2.83,0,0,0-1-2.24,3.76,3.76,0,0,0-2.54-.86,4.16,4.16,0,0,0-2,.47,3.58,3.58,0,0,0-1.37,1.27,3.34,3.34,0,0,0-.48,1.78,3,3,0,0,0,.43,1.51,9.84,9.84,0,0,0,1.58,1.92q1.15,1.15,3.14,3.32l21.79,22.78Z"/><path class="cls-1" d="M483,607.65a8.58,8.58,0,0,1-1.66,5.34,10.3,10.3,0,0,1-4.48,3.3,16.45,16.45,0,0,1-6.15,1.13h-18.4v-38.1h20.39a7.68,7.68,0,0,1,4.64,1.43,9.37,9.37,0,0,1,3,3.64,10.92,10.92,0,0,1,1,4.65,10.36,10.36,0,0,1-1.39,5.17,8.77,8.77,0,0,1-4.08,3.68,9.72,9.72,0,0,1,5.18,3.49A10.16,10.16,0,0,1,483,607.65Zm-23.29-22v9.61h9.88a4.45,4.45,0,0,0,2.25-.59A4.5,4.5,0,0,0,473.5,593a5,5,0,0,0,.61-2.53,5.28,5.28,0,0,0-.56-2.55,4.63,4.63,0,0,0-1.5-1.66,3.81,3.81,0,0,0-2.12-.62Zm15.83,20.55a5.56,5.56,0,0,0-.59-2.6,5,5,0,0,0-1.58-1.85,3.9,3.9,0,0,0-2.28-.7H459.73v10.09h11a4.54,4.54,0,0,0,2.44-.67,5,5,0,0,0,1.75-1.8A4.87,4.87,0,0,0,475.56,606.2Z"/><path class="cls-1" d="M517.42,617.69a17.4,17.4,0,0,1-7.57-1.61,18.32,18.32,0,0,1-5.85-4.37,20.37,20.37,0,0,1-3.81-6.23,19.62,19.62,0,0,1-1.34-7.11,18.91,18.91,0,0,1,1.42-7.27,20.7,20.7,0,0,1,3.92-6.17,18.31,18.31,0,0,1,5.93-4.29,17.52,17.52,0,0,1,7.46-1.59,17,17,0,0,1,7.54,1.67,18.25,18.25,0,0,1,5.82,4.45,20.9,20.9,0,0,1,3.73,6.23,19.78,19.78,0,0,1,1.31,7.08,19.54,19.54,0,0,1-1.37,7.22,19.88,19.88,0,0,1-3.86,6.17,18.32,18.32,0,0,1-5.9,4.26A17.63,17.63,0,0,1,517.42,617.69Zm-11.06-19.32a15.37,15.37,0,0,0,.75,4.78,13.3,13.3,0,0,0,2.17,4.1,10.07,10.07,0,0,0,8.19,3.89,9.83,9.83,0,0,0,4.77-1.1,11,11,0,0,0,3.47-2.92,12.72,12.72,0,0,0,2.11-4.13,15.75,15.75,0,0,0,.7-4.62,15.13,15.13,0,0,0-.75-4.75,12.77,12.77,0,0,0-2.2-4.08,10.89,10.89,0,0,0-3.49-2.84,10,10,0,0,0-4.66-1.05,9.88,9.88,0,0,0-4.7,1.1,11,11,0,0,0-3.49,2.9,12.63,12.63,0,0,0-2.14,4.08A15,15,0,0,0,506.36,598.37Z"/><path class="cls-1" d="M554.06,617.42v-38.1h7.41v38.1Z"/><path class="cls-1" d="M581.75,617.42v-38.1h7.41v31.61h19.42v6.49Z"/><path class="cls-1" d="M651.93,610.93v6.49H625.48v-38.1h26v6.5H632.88V595h16v6h-16v9.93Z"/><path class="cls-1" d="M670.07,617.42v-38.1H687a10.83,10.83,0,0,1,4.8,1.08,12.27,12.27,0,0,1,3.87,2.89,13.5,13.5,0,0,1,2.52,4.08A12.51,12.51,0,0,1,699,592a12.81,12.81,0,0,1-.83,4.61,11.92,11.92,0,0,1-2.38,3.89,10.67,10.67,0,0,1-3.65,2.6l8.69,14.33h-8.16l-7.83-12.77h-7.41v12.77Zm7.4-19.26h9.29a3.91,3.91,0,0,0,2.47-.84,5.85,5.85,0,0,0,1.71-2.22,7.34,7.34,0,0,0,.65-3.11,6.49,6.49,0,0,0-.76-3.17,6.35,6.35,0,0,0-1.87-2.2,4.14,4.14,0,0,0-2.47-.8h-9Z"/><path class="cls-1" d="M766.06,589.3a8.61,8.61,0,0,0-1.36-1,22.15,22.15,0,0,0-2.42-1.26,18.39,18.39,0,0,0-3.09-1.07,13.27,13.27,0,0,0-3.38-.43,7.77,7.77,0,0,0-4.53,1.09,3.67,3.67,0,0,0-1.53,3.18,3.17,3.17,0,0,0,1,2.45,7.63,7.63,0,0,0,2.89,1.55q1.93.64,4.83,1.39a33.5,33.5,0,0,1,6.52,2.22,10.52,10.52,0,0,1,4.24,3.41,9.71,9.71,0,0,1,1.48,5.64,10.84,10.84,0,0,1-1.13,5.12,9.8,9.8,0,0,1-3.08,3.5,13.06,13.06,0,0,1-4.51,2,23,23,0,0,1-5.4.62,28.09,28.09,0,0,1-5.68-.59,30,30,0,0,1-5.45-1.69,27.81,27.81,0,0,1-4.86-2.66l3.28-6.38a10.74,10.74,0,0,0,1.71,1.26,23.76,23.76,0,0,0,3,1.55,25.31,25.31,0,0,0,3.86,1.32,16.93,16.93,0,0,0,4.24.53,8.4,8.4,0,0,0,4.56-1,3.21,3.21,0,0,0,1.5-2.89,3.31,3.31,0,0,0-1.2-2.7,10.6,10.6,0,0,0-3.41-1.71q-2.21-.72-5.2-1.52a29.46,29.46,0,0,1-6-2.3,9.28,9.28,0,0,1-3.59-3.18,8.7,8.7,0,0,1-1.21-4.78,10.94,10.94,0,0,1,1.88-6.54,11.67,11.67,0,0,1,5-4,17.56,17.56,0,0,1,7-1.37,21.22,21.22,0,0,1,5.07.59,26.1,26.1,0,0,1,8.23,3.65Z"/><path class="cls-1" d="M788.6,617.42v-38.1h16.15a11,11,0,0,1,4.85,1.08,11.93,11.93,0,0,1,3.84,2.89,13.84,13.84,0,0,1,2.5,4.08,12.51,12.51,0,0,1,.88,4.62,13.5,13.5,0,0,1-1.45,6.09,12.14,12.14,0,0,1-4.1,4.74,10.66,10.66,0,0,1-6.2,1.83H796v12.77Zm7.4-19.26h8.59a4.22,4.22,0,0,0,2.47-.75,5.07,5.07,0,0,0,1.68-2.18,8.1,8.1,0,0,0,.62-3.24,7.14,7.14,0,0,0-.72-3.36,5.4,5.4,0,0,0-1.88-2.09,4.62,4.62,0,0,0-2.49-.72H796Z"/><path class="cls-1" d="M842.31,579.32h7.51l14,38.1H856.2l-3.16-9.5h-14l-3.18,9.5h-7.62Zm9,23.4L846.06,587l-5.26,15.72Z"/><path class="cls-1" d="M880.4,617.42v-38.1h16.91a10.89,10.89,0,0,1,4.8,1.08,12.34,12.34,0,0,1,3.86,2.89,13.5,13.5,0,0,1,2.52,4.08,12.52,12.52,0,0,1,.89,4.62,13,13,0,0,1-.83,4.61,12,12,0,0,1-2.39,3.89,10.67,10.67,0,0,1-3.65,2.6l8.69,14.33h-8.15l-7.84-12.77h-7.4v12.77Zm7.41-19.26h9.28a3.91,3.91,0,0,0,2.47-.84,5.77,5.77,0,0,0,1.72-2.22,7.33,7.33,0,0,0,.64-3.11,6.6,6.6,0,0,0-.75-3.17,6.37,6.37,0,0,0-1.88-2.2,4.12,4.12,0,0,0-2.47-.8h-9Z"/><path class="cls-1" d="M954.88,610.93v6.49H928.43v-38.1h26v6.5H935.83V595h16v6h-16v9.93Z"/><path class="cls-1" d="M994.91,589.3a8.34,8.34,0,0,0-1.37-1,21.92,21.92,0,0,0-2.41-1.26A18.39,18.39,0,0,0,988,586a13.33,13.33,0,0,0-3.38-.43,7.74,7.74,0,0,0-4.53,1.09,3.67,3.67,0,0,0-1.53,3.18,3.2,3.2,0,0,0,1,2.45,7.68,7.68,0,0,0,2.9,1.55q1.93.64,4.83,1.39a33.74,33.74,0,0,1,6.52,2.22,10.59,10.59,0,0,1,4.24,3.41,9.71,9.71,0,0,1,1.47,5.64,10.84,10.84,0,0,1-1.12,5.12,9.74,9.74,0,0,1-3.09,3.5,13.06,13.06,0,0,1-4.51,2,22.88,22.88,0,0,1-5.39.62,28.19,28.19,0,0,1-5.69-.59,29.9,29.9,0,0,1-5.44-1.69,27.11,27.11,0,0,1-4.86-2.66l3.27-6.38a11.46,11.46,0,0,0,1.72,1.26,23.1,23.1,0,0,0,3,1.55,24.94,24.94,0,0,0,3.86,1.32,16.93,16.93,0,0,0,4.24.53,8.4,8.4,0,0,0,4.56-1,3.23,3.23,0,0,0,1.5-2.89,3.31,3.31,0,0,0-1.2-2.7,10.71,10.71,0,0,0-3.41-1.71q-2.21-.72-5.21-1.52a29.58,29.58,0,0,1-6-2.3,9.24,9.24,0,0,1-3.6-3.18,8.78,8.78,0,0,1-1.21-4.78,11,11,0,0,1,1.88-6.54,11.64,11.64,0,0,1,5.05-4,17.55,17.55,0,0,1,7-1.37,21.37,21.37,0,0,1,5.08.59,26,26,0,0,1,4.48,1.56,26.45,26.45,0,0,1,3.75,2.09Z"/><rect class="cls-1" y="522.1" width="1000" height="8.8"/></svg>