<svg id="Layer_1" data-name="Layer 1" xmlns="http://www.w3.org/2000/svg" viewBox="0 0 1000 557.25"><defs><style>.cls-1{fill:#fff;}.cls-2{fill:#d22930;}</style></defs><path class="cls-1" d="M0,422l30.81-36.81c19.68,15.7,41.65,24,64.74,24,14.85,0,22.84-5.14,22.84-13.68v-.58c0-8.27-6.57-12.85-33.67-19.12C42.21,366.08,9.42,354.09,9.42,313v-.55c0-37.1,29.38-63.9,77.3-63.9,33.94,0,60.47,9.13,82.15,26.52l-27.68,39.07c-18.25-12.82-38.21-19.67-55.9-19.67-13.4,0-20,5.71-20,12.84v.56c0,9.13,6.84,13.12,34.51,19.39,45.93,10,74.45,24.83,74.45,62.2V390c0,40.79-32.24,65-80.72,65C58.19,455.06,24.53,443.93,0,422Z"/><path class="cls-1" d="M201.2,252h85.58c50.48,0,83,26,83,70.17v.58c0,47.06-36.22,71.89-85.86,71.89H256.54v57H201.2Zm81.58,99.27c19.69,0,31.66-10.26,31.66-26v-.56c0-17.12-12-26.25-31.95-26.25H256.54v52.77Z"/><path class="cls-1" d="M442.34,250.55h53.34l85,201.09H521.36L506.81,416h-77l-14.26,35.65h-58.2Zm48.5,122.35-22.25-56.76L446.05,372.9Z"/><path class="cls-1" d="M600.21,252h94.42c30.52,0,51.63,8,65,21.67,11.7,11.43,17.69,26.83,17.69,46.5v.58c0,30.52-16.26,50.78-41.08,61.32l47.64,69.61H720L679.8,391.16H655.55v60.48H600.21Zm91.85,95.86c18.83,0,29.66-9.13,29.66-23.69v-.56c0-15.7-11.4-23.69-30-23.69H655.55v47.94Z"/><path class="cls-1" d="M807.74,251.25h55.34v81l68.75-81h65.6l-75.59,85.87L1000,450.93H933.54l-50.21-74.16L863.08,399.3v51.63H807.74Z"/><path class="cls-1" d="M0,556.48V507.4H34.64v6.1H7v36.88H35.62v6.1Zm6.38-22v-5.95H31.62v5.95Z"/><path class="cls-1" d="M47,556.48V507.4h7v43H80.56v6.1Z"/><path class="cls-1" d="M88.63,556.48V507.4h34.63v6.1H95.64v36.88h28.61v6.1Zm6.38-22v-5.95h25.24v5.95Z"/><path class="cls-1" d="M157.2,557a28,28,0,0,1-10.34-1.86,24.18,24.18,0,0,1-8.2-5.25,24.67,24.67,0,0,1-5.44-8,26.64,26.64,0,0,1,0-20.06,24.45,24.45,0,0,1,13.71-13.21,29.57,29.57,0,0,1,20.83.07,21.4,21.4,0,0,1,8.16,5.71l-4.55,4.42a18.21,18.21,0,0,0-6.31-4.38,19.58,19.58,0,0,0-7.51-1.44,20.75,20.75,0,0,0-7.67,1.4,18.57,18.57,0,0,0-6.14,3.93,17.72,17.72,0,0,0-4,6,20.46,20.46,0,0,0,0,15.08,17.72,17.72,0,0,0,4,6,18.42,18.42,0,0,0,6.14,3.93,20.55,20.55,0,0,0,7.67,1.4,19.58,19.58,0,0,0,7.51-1.44,17.77,17.77,0,0,0,6.31-4.45l4.55,4.42a21.83,21.83,0,0,1-8.16,5.75A27.65,27.65,0,0,1,157.2,557Z"/><path class="cls-1" d="M194.29,556.48v-43H177.47v-6.1h40.6v6.1H201.24v43Z"/><path class="cls-1" d="M225.71,556.48V507.4h19.14q9.54,0,15,4.52t5.47,12.59a16.55,16.55,0,0,1-2.45,9.15,15.61,15.61,0,0,1-7,5.85,26.85,26.85,0,0,1-11,2H229.56l3.16-3.23v18.16Zm7-17.46-3.16-3.43h15.08q6.74,0,10.2-2.91a10.09,10.09,0,0,0,3.47-8.17,10,10,0,0,0-3.47-8.14q-3.47-2.86-10.2-2.87H229.56l3.16-3.51Zm25.8,17.46L246,538.67h7.5l12.62,17.81Z"/><path class="cls-1" d="M276.68,556.48V507.4h7v49.08Z"/><path class="cls-1" d="M320.37,557A28.05,28.05,0,0,1,310,555.18a24.18,24.18,0,0,1-8.2-5.25,24.64,24.64,0,0,1-5.43-8,26.52,26.52,0,0,1,0-20.06,24.37,24.37,0,0,1,5.46-7.95,24.67,24.67,0,0,1,8.24-5.26,29.57,29.57,0,0,1,20.83.07,21.51,21.51,0,0,1,8.17,5.71l-4.56,4.42a18.12,18.12,0,0,0-6.31-4.38,19.57,19.57,0,0,0-7.5-1.44,20.76,20.76,0,0,0-7.68,1.4,18.57,18.57,0,0,0-6.14,3.93,17.72,17.72,0,0,0-4,6,20.46,20.46,0,0,0,0,15.08,17.72,17.72,0,0,0,4,6A18.42,18.42,0,0,0,313,549.4a20.56,20.56,0,0,0,7.68,1.4,19.57,19.57,0,0,0,7.5-1.44,17.68,17.68,0,0,0,6.31-4.45l4.56,4.42a21.94,21.94,0,0,1-8.17,5.75A27.6,27.6,0,0,1,320.37,557Z"/><path class="cls-1" d="M403.17,557.25l-27.55-27.41a37.43,37.43,0,0,1-3.86-4.39,14.18,14.18,0,0,1-2-3.75,11,11,0,0,1-.64-3.71,10.24,10.24,0,0,1,1.65-5.79,10.76,10.76,0,0,1,4.63-3.85,16.47,16.47,0,0,1,7-1.37,15.66,15.66,0,0,1,6.45,1.23,9.29,9.29,0,0,1,5.75,9,10.21,10.21,0,0,1-1.37,5.18A15.67,15.67,0,0,1,388.8,527a57.2,57.2,0,0,1-8.14,4.84,43.54,43.54,0,0,0-6.59,4,12.92,12.92,0,0,0-3.4,3.68,8.06,8.06,0,0,0-1,4,6.57,6.57,0,0,0,1.36,4.1,8.74,8.74,0,0,0,3.86,2.77,15.59,15.59,0,0,0,5.78,1,17.64,17.64,0,0,0,8.49-2,17,17,0,0,0,6.34-6.1,29.69,29.69,0,0,0,3.76-10.1l5.39,1.76a31.51,31.51,0,0,1-4.8,12,23.16,23.16,0,0,1-8.38,7.5A23.91,23.91,0,0,1,380.24,557a22.8,22.8,0,0,1-8.83-1.61,14.75,14.75,0,0,1-6.1-4.49,10.47,10.47,0,0,1-2.25-6.66,12.41,12.41,0,0,1,1.48-6,17.53,17.53,0,0,1,4.69-5.29,53.66,53.66,0,0,1,8.49-5.3,64.24,64.24,0,0,0,6.69-3.92,13.39,13.39,0,0,0,3.44-3.19,5.74,5.74,0,0,0,1-3.26,5,5,0,0,0-1.69-3.9,7,7,0,0,0-4.83-1.5,7.55,7.55,0,0,0-5.16,1.64,5.49,5.49,0,0,0-1.85,4.32,7.42,7.42,0,0,0,.45,2.56,9.94,9.94,0,0,0,1.68,2.73A51.3,51.3,0,0,0,381,527L407,552.77Z"/><path class="cls-1" d="M434.23,556.48V507.4h22q8.47,0,13,3.4a11,11,0,0,1,4.56,9.29,12.06,12.06,0,0,1-1.79,6.73,11.74,11.74,0,0,1-4.8,4.21,14.7,14.7,0,0,1-6.52,1.47l1.26-2.1a17.75,17.75,0,0,1,7.43,1.47,12,12,0,0,1,5.12,4.31,12.46,12.46,0,0,1,1.89,7.05,11.4,11.4,0,0,1-4.73,9.78q-4.72,3.47-14.06,3.47Zm7-5.68h16.13q5.82,0,8.91-2a7.79,7.79,0,0,0,0-12.41q-3.09-2-8.91-2H440.61v-5.67h15q5.33,0,8.27-2a7.36,7.36,0,0,0,0-11.78q-2.94-2-8.27-2H441.24Z"/><path class="cls-1" d="M509.47,557a28.16,28.16,0,0,1-10.41-1.89,24.82,24.82,0,0,1-8.31-5.29,24.44,24.44,0,0,1-5.47-8,26.16,26.16,0,0,1,0-19.92,24.4,24.4,0,0,1,5.47-8,24.81,24.81,0,0,1,8.27-5.3,29.86,29.86,0,0,1,20.83,0,24.6,24.6,0,0,1,8.27,5.26,23.7,23.7,0,0,1,5.43,8,26.92,26.92,0,0,1,0,20,23.88,23.88,0,0,1-5.43,8,24.58,24.58,0,0,1-8.27,5.25A28.33,28.33,0,0,1,509.47,557Zm-.07-6.24a20.05,20.05,0,0,0,7.61-1.4,18.16,18.16,0,0,0,6-4,18.64,18.64,0,0,0,4-6,19.21,19.21,0,0,0,1.44-7.5A18.76,18.76,0,0,0,523,518.48a17.81,17.81,0,0,0-6-4,20.25,20.25,0,0,0-7.61-1.4,20,20,0,0,0-7.54,1.4,18,18,0,0,0-6.06,4,18.63,18.63,0,0,0-4,6,19,19,0,0,0-1.43,7.47,19.2,19.2,0,0,0,1.43,7.5,18.14,18.14,0,0,0,4,6,18.39,18.39,0,0,0,6.06,4A19.84,19.84,0,0,0,509.4,550.8Z"/><path class="cls-1" d="M546.21,556.48V507.4h7v49.08Z"/><path class="cls-1" d="M567.94,556.48V507.4h7v43h26.57v6.1Z"/><path class="cls-1" d="M609.59,556.48V507.4h34.64v6.1H616.6v36.88h28.61v6.1Zm6.38-22v-5.95h25.25v5.95Z"/><path class="cls-1" d="M656.57,556.48V507.4h19.14q9.54,0,15,4.52t5.47,12.59a16.55,16.55,0,0,1-2.46,9.15,15.61,15.61,0,0,1-7,5.85,26.85,26.85,0,0,1-11,2H660.43l3.15-3.23v18.16Zm7-17.46-3.15-3.43H675.5q6.74,0,10.2-2.91a10.07,10.07,0,0,0,3.48-8.17,10,10,0,0,0-3.48-8.14q-3.47-2.86-10.2-2.87H660.43l3.15-3.51Zm25.81,17.46L676.9,538.67h7.51L697,556.48Z"/><path class="cls-1" d="M740.71,557A33.36,33.36,0,0,1,730,555.32a21.78,21.78,0,0,1-8.06-4.45l2.59-5.47a22.76,22.76,0,0,0,7.15,4.07,25.73,25.73,0,0,0,9.05,1.61,20.32,20.32,0,0,0,6.94-1,8.16,8.16,0,0,0,3.93-2.7,6.4,6.4,0,0,0,1.26-3.89,5.32,5.32,0,0,0-1.65-4.07,12.35,12.35,0,0,0-4.27-2.49,47.1,47.1,0,0,0-5.79-1.64q-3.15-.7-6.35-1.65a28.77,28.77,0,0,1-5.82-2.42,11.94,11.94,0,0,1-4.24-4,11.66,11.66,0,0,1-1.61-6.42,12.88,12.88,0,0,1,2-7,13.82,13.82,0,0,1,6.17-5.12,25.3,25.3,0,0,1,10.62-1.93,32.65,32.65,0,0,1,8.48,1.12,23.55,23.55,0,0,1,7.3,3.23l-2.32,5.6a22.48,22.48,0,0,0-6.66-3,25.62,25.62,0,0,0-6.8-1,18.71,18.71,0,0,0-6.8,1.05,8.27,8.27,0,0,0-3.89,2.81,6.64,6.64,0,0,0-1.23,3.92,5.4,5.4,0,0,0,1.65,4.14,11.66,11.66,0,0,0,4.28,2.45,56.91,56.91,0,0,0,5.78,1.65c2.11.49,4.22,1,6.35,1.65a27.6,27.6,0,0,1,5.82,2.38,12,12,0,0,1,4.24,3.93,11.34,11.34,0,0,1,1.61,6.31,12.66,12.66,0,0,1-2,6.91,14.09,14.09,0,0,1-6.28,5.11A25.81,25.81,0,0,1,740.71,557Z"/><path class="cls-1" d="M770,556.48V507.4h19.14a27,27,0,0,1,11,2,15.63,15.63,0,0,1,7,5.89,16.73,16.73,0,0,1,2.45,9.19,16.55,16.55,0,0,1-2.45,9.15,15.88,15.88,0,0,1-7,5.89,26.51,26.51,0,0,1-11,2.07H773.81l3.15-3.3v18.16ZM777,539l-3.15-3.5h15.07q6.74,0,10.2-2.88a11.27,11.27,0,0,0,0-16.27q-3.47-2.86-10.2-2.87H773.81L777,510Z"/><path class="cls-1" d="M810,556.48l22.23-49.08h6.94l22.3,49.08h-7.36l-19.84-45.15h2.8l-19.84,45.15Zm9.47-12.27,1.89-5.61H849l2,5.61Z"/><path class="cls-1" d="M868.74,556.48V507.4h19.14q9.54,0,15,4.52t5.47,12.59a16.55,16.55,0,0,1-2.46,9.15,15.56,15.56,0,0,1-7,5.85,26.85,26.85,0,0,1-11,2H872.6l3.15-3.23v18.16Zm7-17.46-3.15-3.43h15.07q6.74,0,10.21-2.91a10.09,10.09,0,0,0,3.47-8.17,10,10,0,0,0-3.47-8.14q-3.48-2.86-10.21-2.87H872.6l3.15-3.51Zm25.81,17.46-12.48-17.81h7.5l12.62,17.81Z"/><path class="cls-1" d="M919.71,556.48V507.4h34.64v6.1H926.73v36.88h28.6v6.1Zm6.39-22v-5.95h25.24v5.95Z"/><path class="cls-1" d="M981,557a33.36,33.36,0,0,1-10.73-1.72,21.91,21.91,0,0,1-8.07-4.45l2.6-5.47a22.76,22.76,0,0,0,7.15,4.07,25.69,25.69,0,0,0,9,1.61,20.32,20.32,0,0,0,6.94-1,8.17,8.17,0,0,0,3.92-2.7,6.34,6.34,0,0,0,1.27-3.89,5.32,5.32,0,0,0-1.65-4.07A12.4,12.4,0,0,0,987.2,537a46.43,46.43,0,0,0-5.78-1.64c-2.11-.47-4.22-1-6.35-1.65a28.54,28.54,0,0,1-5.82-2.42,11.94,11.94,0,0,1-4.24-4,11.58,11.58,0,0,1-1.61-6.42,12.88,12.88,0,0,1,2-7,13.82,13.82,0,0,1,6.17-5.12,25.3,25.3,0,0,1,10.62-1.93,32.65,32.65,0,0,1,8.48,1.12,23.55,23.55,0,0,1,7.3,3.23l-2.32,5.6a22.48,22.48,0,0,0-6.66-3,25.67,25.67,0,0,0-6.8-1,18.71,18.71,0,0,0-6.8,1.05,8.22,8.22,0,0,0-3.89,2.81,6.64,6.64,0,0,0-1.23,3.92,5.4,5.4,0,0,0,1.65,4.14,11.62,11.62,0,0,0,4.27,2.45,57.89,57.89,0,0,0,5.79,1.65c2.1.49,4.22,1,6.34,1.65a27.17,27.17,0,0,1,5.82,2.38,12,12,0,0,1,4.25,3.93,11.34,11.34,0,0,1,1.61,6.31,12.66,12.66,0,0,1-2,6.91,14.09,14.09,0,0,1-6.28,5.11A25.81,25.81,0,0,1,981,557Z"/><path class="cls-1" d="M0,104.4v-.55C0,45.64,44.79,0,105.26,0c40.79,0,67,17.12,84.72,41.65L148.34,73.88c-11.42-14.26-24.54-23.39-43.65-23.39-27.95,0-47.63,23.67-47.63,52.78v.58c0,29.94,19.68,53.32,47.63,53.32,20.83,0,33.09-9.68,45.08-24.24l41.64,29.68c-18.82,25.94-44.21,45.06-88.43,45.06C45.93,207.67,0,164,0,104.4Z"/><path class="cls-1" d="M216.33,4H272V203.67H216.33Z"/><path class="cls-1" d="M357.31,52.49h-59.9V4H472.55v48.5h-59.9V203.67H357.31Z"/><path class="cls-1" d="M541.56,4h-63l61.84,101.8L568,50.88Z"/><path class="cls-2" d="M936.3,201.94c-31.64-.09-56.92-21.52-62.35-52.67-2.77-15.88.61-30.68,7.17-45,6.28-13.73,14.67-26.2,23.1-38.65,10.33-15.27,19.8-31,26.62-48.22,1.52-3.84,2.72-7.82,4.15-11.7.23-.63.91-1.11,1.39-1.66.53.58,1.29,1.06,1.55,1.74,1.86,4.92,3.42,10,5.44,14.81,6.7,16.09,15.73,30.88,25.46,45.27,9.25,13.68,18.46,27.38,24.82,42.74,6.85,16.53,8.79,33.4,2.67,50.54-8.76,24.56-26.14,38.76-52,42.32C941.65,201.81,939,201.79,936.3,201.94ZM896.4,99.43c-.51.47-.71.58-.8.75-9.35,17-12.75,34.88-7.2,53.82,3.83,13.1,11,24,23,31.05a39.42,39.42,0,0,0,18,5.54,8.1,8.1,0,0,0,8.83-6.78,8.63,8.63,0,0,0-6.09-9.61c-.93-.32-1.88-.57-2.82-.86-9-2.79-17.26-7.05-23-14.72-8.39-11.1-12.24-23.88-12.75-37.7C893.21,113.78,894.52,106.81,896.4,99.43Z"/><path class="cls-2" d="M779.5,106.65c-16.6,16.37-29.07,33.41-20.75,58.54-7.26-1.79-10.92-6.74-14.52-12.68a36.77,36.77,0,0,0-3.72,25.64c1.78,8.79,6.28,16,13,22.08a11.8,11.8,0,0,1-2.33-.54c-22.11-9.93-36.87-26.15-40.49-50.53-2.92-19.66,2.5-37.89,14.06-53.89,7.08-9.78,15.26-18.76,23.1-28C758.33,55,766.72,41.58,768.32,25c.53-5.49.11-11.08.06-16.62a43.2,43.2,0,0,0-.46-4.34c.49,0,.82-.1.94,0,17.82,16.05,32.73,34.24,41.68,56.8,7.48,18.88,7.1,37.84.77,56.9l-.82,2.46c7.89.66,16.38-6.63,29.07-25,10.5,20.26,12.41,40.85,4.27,61.91-9,23.18-25.89,37.85-49.5,44.82l-.84-.87a13.94,13.94,0,0,0,1.72-1c14.59-11.37,18.06-27.79,8.65-43.75-3.42-5.79-8-11-12.36-16.11-6.3-7.37-11.6-15.1-12-25.21C779.42,112.55,779.5,110.09,779.5,106.65Z"/><polygon class="cls-2" points="643.65 95.33 701.11 95.33 617.21 198.56 601.95 217.37 557.2 272.55 578.56 217.37 605.25 148.22 538.89 148.22 550.34 125.59 579.83 67.36 611.87 3.54 705.43 3.54 643.65 95.33"/></svg>